<svg width="32" height="29" viewBox="0 0 32 29" fill="none" xmlns="http://www.w3.org/2000/svg">
<path fill-rule="evenodd" clip-rule="evenodd" d="M20.4085 2.88328C19.5428 2.39087 18.5004 2.39374 17.6619 2.88128C17.6589 2.88305 17.6558 2.88479 17.6528 2.8865L15.7656 3.93218C15.5213 4.06754 15.2117 3.98261 15.074 3.74249C14.9363 3.50237 15.0227 3.19798 15.267 3.06262L17.1497 2.0194C18.3097 1.34711 19.7424 1.35076 20.9179 2.01979L20.9189 2.02036L29.6157 6.99597C30.7668 7.66535 31.4949 8.88199 31.4949 10.2247V20.1723C31.4949 21.4917 30.7684 22.7307 29.6157 23.401L29.6126 23.4028L20.9189 28.3767L20.9108 28.3812C19.7373 29.0244 18.3093 29.027 17.1521 28.379L17.148 28.3767L8.45642 23.404C8.45614 23.4038 8.45587 23.4037 8.45559 23.4035C8.08532 23.1937 7.62815 22.8032 7.26073 22.3228C6.895 21.8446 6.57202 21.2164 6.57202 20.5315V17.9996C6.57202 17.7239 6.79934 17.5005 7.07975 17.5005C7.36017 17.5005 7.58749 17.7239 7.58749 17.9996V20.5315C7.58749 20.9149 7.77526 21.3344 8.07242 21.723C8.36761 22.109 8.72506 22.4042 8.9632 22.539L8.96521 22.5401L17.6547 27.5116C17.6554 27.512 17.656 27.5124 17.6567 27.5127C18.4974 27.9826 19.5443 27.9855 20.4124 27.5115L29.0986 22.5419C29.0991 22.5416 29.0996 22.5414 29.1001 22.5411C29.946 22.0485 30.4795 21.1349 30.4795 20.1723V10.2247C30.4795 9.24253 29.9477 8.34955 29.1002 7.85601C29.0997 7.85571 29.0992 7.85541 29.0986 7.85512L20.4091 2.88365C20.4089 2.88352 20.4087 2.8834 20.4085 2.88328Z" fill="currentColor"/>
<path fill-rule="evenodd" clip-rule="evenodd" d="M6.75272 0.945917C6.91081 0.855267 7.10629 0.855267 7.26438 0.945917L13.2857 4.39862C13.4417 4.48807 13.5376 4.65222 13.5376 4.82973V11.7351C13.5376 11.9127 13.4417 12.0768 13.2857 12.1663L7.26438 15.619C7.10629 15.7096 6.91081 15.7096 6.75272 15.619L0.731393 12.1663C0.575409 12.0768 0.479492 11.9127 0.479492 11.7351V4.82973C0.479492 4.65222 0.575409 4.48807 0.731393 4.39862L6.75272 0.945917ZM1.49496 5.1164V11.4485L7.00855 14.61L12.5221 11.4485V5.1164L7.00855 1.95484L1.49496 5.1164Z" fill="currentColor"/>
<path fill-rule="evenodd" clip-rule="evenodd" d="M18.7776 7.85143C18.9357 7.76078 19.1311 7.76078 19.2892 7.85143L25.3125 11.3052C25.4685 11.3947 25.5644 11.5588 25.5644 11.7363V18.6439C25.5644 18.8215 25.4685 18.9856 25.3125 19.0751L19.2892 22.5289C19.1311 22.6195 18.9357 22.6195 18.7776 22.5289L12.7543 19.0751C12.5984 18.9856 12.5024 18.8215 12.5024 18.6439V11.7363C12.5024 11.5588 12.5984 11.3947 12.7543 11.3052L18.7776 7.85143ZM13.5179 12.023V18.3573L19.0334 21.5199L24.5489 18.3573V12.023L19.0334 8.86035L13.5179 12.023Z" fill="currentColor"/>
</svg>
