<svg width="31" height="34" viewBox="0 0 31 34" fill="none" xmlns="http://www.w3.org/2000/svg">
<path fill-rule="evenodd" clip-rule="evenodd" d="M15.5073 15.7499C16.2415 15.7499 16.9403 15.4686 17.4513 14.9761C17.9614 14.4845 18.2428 13.8236 18.2428 13.1403C18.2428 12.4569 17.9614 11.796 17.4513 11.3044C16.9403 10.8119 16.2415 10.5306 15.5073 10.5306C14.7731 10.5306 14.0743 10.8119 13.5632 11.3044C13.0531 11.796 12.7717 12.4569 12.7717 13.1403C12.7717 13.8236 13.0531 14.4845 13.5632 14.9761C14.0743 15.4686 14.7731 15.7499 15.5073 15.7499ZM9.81619 23.3781H21.1983C21.0287 21.2788 19.2021 19.5891 16.9203 19.5891H14.0942C11.8124 19.5891 9.98578 21.2788 9.81619 23.3781ZM18.3059 15.8372C17.5636 16.5525 16.5569 16.9544 15.5073 16.9544C14.4576 16.9544 13.4509 16.5525 12.7086 15.8372C11.9664 15.122 11.5494 14.1518 11.5494 13.1403C11.5494 12.1287 11.9664 11.1586 12.7086 10.4433C13.4509 9.72801 14.4576 9.32617 15.5073 9.32617C16.5569 9.32617 17.5636 9.72801 18.3059 10.4433C19.0481 11.1586 19.4651 12.1287 19.4651 13.1403C19.4651 14.1518 19.0481 15.122 18.3059 15.8372ZM8.58105 23.6976C8.58105 20.7625 11.0485 18.3847 14.0942 18.3847H16.9203C19.966 18.3847 22.4335 20.7625 22.4335 23.6976C22.4335 24.1863 22.0222 24.5826 21.5151 24.5826H9.4994C8.9923 24.5826 8.58105 24.1863 8.58105 23.6976Z" fill="currentColor"/>
<path fill-rule="evenodd" clip-rule="evenodd" d="M17.1632 2.10433C16.1211 1.50999 14.8662 1.5134 13.8568 2.10177L13.8531 2.10394L3.38848 8.10578L3.38727 8.10648C2.34982 8.69837 1.73008 9.77091 1.73008 10.963V23.4001C1.73008 23.8628 1.95612 24.369 2.3138 24.8378C2.66914 25.3036 3.0994 25.6598 3.38606 25.8225L3.38849 25.8239L13.8482 31.8229C13.849 31.8234 13.8498 31.8238 13.8506 31.8243C14.8626 32.3912 16.1227 32.3948 17.1676 31.8228L27.6234 25.826C27.624 25.8257 27.6245 25.8254 27.6251 25.825C28.6434 25.2306 29.2855 24.1281 29.2855 22.9667V10.963C29.2855 9.77781 28.6455 8.70025 27.6253 8.1047C27.6246 8.10434 27.624 8.10398 27.6234 8.10362L17.1637 2.10462C17.1636 2.10452 17.1634 2.10442 17.1632 2.10433ZM13.2365 1.06397C14.6335 0.250554 16.3599 0.254245 17.7761 1.06226L17.7773 1.06295L28.2457 7.06696C29.6313 7.87468 30.5078 9.34278 30.5078 10.963V22.9667C30.5078 24.5587 29.6333 26.0538 28.2457 26.8627L28.242 26.8648L17.7773 32.8667L17.7675 32.8722C16.355 33.6483 14.6361 33.6514 13.2432 32.8695L13.2383 32.8667L2.77607 26.8662C2.77556 26.8659 2.77504 26.8656 2.77453 26.8653C2.32893 26.6121 1.7789 26.1411 1.33682 25.5616C0.896577 24.9845 0.507812 24.2265 0.507812 23.4001V10.963C0.507812 9.34923 1.35284 7.87576 2.77413 7.06454C2.77437 7.0644 2.77461 7.06426 2.77486 7.06412L13.2365 1.06397Z" fill="currentColor"/>
</svg>
