<svg width="137" height="129" viewBox="0 0 137 129" fill="none" xmlns="http://www.w3.org/2000/svg">
<g opacity="0.15">
<path d="M64.0791 0.628906C99.1492 0.628906 127.579 29.2827 127.579 64.6289L64.0791 64.6289V0.628906Z" fill="url(#paint0_linear_2834_95559)"/>
<path d="M64.0791 64.6289L64.0791 128.629C29.009 128.629 0.579095 99.9751 0.579102 64.6289L64.0791 64.6289Z" fill="url(#paint1_linear_2834_95559)"/>
<path d="M132.339 109.008H122.705V99.4175C122.705 97.8763 121.45 96.6289 119.903 96.6289H119.76C118.211 96.6289 116.958 97.8782 116.958 99.4175V109.008H107.324C105.776 109.008 104.522 110.257 104.522 111.796C104.522 113.338 105.778 114.585 107.324 114.585H116.956V124.317C116.956 125.858 118.211 127.105 119.758 127.105H119.901C121.45 127.105 122.703 125.856 122.703 124.317V114.585H132.337C133.885 114.585 135.139 113.336 135.139 111.796C135.139 110.255 133.883 109.008 132.337 109.008H132.339Z" stroke="#14CECE" stroke-width="2" stroke-miterlimit="10"/>
</g>
<defs>
<linearGradient id="paint0_linear_2834_95559" x1="115.916" y1="124.711" x2="8.99069" y2="115.709" gradientUnits="userSpaceOnUse">
<stop stop-color="#16A5A5"/>
<stop offset="1" stop-color="#3FC6C6"/>
</linearGradient>
<linearGradient id="paint1_linear_2834_95559" x1="115.916" y1="124.711" x2="8.99069" y2="115.709" gradientUnits="userSpaceOnUse">
<stop stop-color="#16A5A5"/>
<stop offset="1" stop-color="#3FC6C6"/>
</linearGradient>
</defs>
</svg>
