<svg width="592" height="592" viewBox="0 0 592 592" fill="none" xmlns="http://www.w3.org/2000/svg">
<g opacity="0.1">
<g opacity="0.2">
<path d="M493.396 345.227C493.396 372.427 471.346 394.477 444.146 394.477C416.945 394.477 394.896 372.427 394.896 345.227C394.896 318.027 416.945 295.977 444.146 295.977C471.346 295.977 493.396 318.027 493.396 345.227Z" fill="url(#paint0_linear_1921_29102)"/>
</g>
<g opacity="0.2">
<path d="M444.146 98.9766C471.346 98.9766 493.396 121.027 493.396 148.227H444.146V98.9766Z" fill="url(#paint1_linear_1921_29102)"/>
<path d="M444.146 148.227L444.146 197.477C416.945 197.477 394.896 175.427 394.896 148.227L444.146 148.227Z" fill="url(#paint2_linear_1921_29102)"/>
</g>
<path d="M197.896 443.727C197.896 416.527 219.945 394.477 247.146 394.477L247.146 443.727L197.896 443.727Z" fill="url(#paint3_linear_1921_29102)"/>
<path d="M247.146 443.727L296.396 443.727C296.395 470.927 274.346 492.977 247.146 492.977L247.146 443.727Z" fill="url(#paint4_linear_1921_29102)"/>
<path d="M394.895 295.977C340.495 295.977 296.396 340.077 296.396 394.477L394.895 394.477L394.895 295.977Z" fill="url(#paint5_linear_1921_29102)"/>
<g opacity="0.2">
<path d="M197.728 296.145C197.914 350.545 242.164 394.494 296.563 394.309L296.227 295.809L197.728 296.145Z" fill="url(#paint6_linear_1921_29102)"/>
</g>
<g opacity="0.2">
<path d="M542.646 197.477V246.727H591.896L542.646 295.977V246.727H493.396L542.646 197.477Z" fill="url(#paint7_linear_1921_29102)"/>
</g>
<path d="M591.895 148.227C591.895 175.427 569.846 197.477 542.645 197.477C515.445 197.477 493.396 175.427 493.396 148.227C493.396 121.027 515.445 98.9766 542.645 98.9766C569.846 98.9766 591.895 121.027 591.895 148.227Z" fill="url(#paint8_linear_1921_29102)"/>
<path d="M591.895 394.477C591.895 340.077 547.796 295.977 493.396 295.977V394.477H591.895Z" fill="url(#paint9_linear_1921_29102)"/>
<g opacity="0.2">
<path d="M493.396 394.477H591.895V492.977H493.396V394.477Z" fill="url(#paint10_linear_1921_29102)"/>
</g>
<g opacity="0.2">
<path d="M591.896 98.9766V0.476562L493.396 98.9766H591.896Z" fill="url(#paint11_linear_1921_29102)"/>
</g>
<g opacity="0.2">
<path d="M394.896 197.477L394.896 295.977L493.396 197.477L394.896 197.477Z" fill="url(#paint12_linear_1921_29102)"/>
</g>
<path d="M394.896 295.977L394.896 197.477L296.396 295.977L394.896 295.977Z" fill="url(#paint13_linear_1921_29102)"/>
<path d="M394.896 492.977L493.396 492.977L394.896 394.477L394.896 492.977Z" fill="url(#paint14_linear_1921_29102)"/>
<g opacity="0.2">
<path d="M493.395 492.977C438.995 492.977 394.896 537.077 394.896 591.477L493.395 591.477L493.395 492.977Z" fill="url(#paint15_linear_1921_29102)"/>
</g>
<g opacity="0.2">
<path d="M99.3955 591.477C153.796 591.477 197.896 547.377 197.896 492.977L99.3955 492.977L99.3955 591.477Z" fill="url(#paint16_linear_1921_29102)"/>
</g>
<path d="M591.895 542.227C591.895 569.427 569.846 591.477 542.645 591.477C515.445 591.477 493.396 569.427 493.396 542.227C493.396 515.027 515.445 492.977 542.645 492.977C569.846 492.977 591.895 515.027 591.895 542.227Z" fill="url(#paint17_linear_1921_29102)"/>
<g opacity="0.2">
<path d="M296.396 394.477V492.977L394.895 394.477H296.396Z" fill="url(#paint18_linear_1921_29102)"/>
</g>
</g>
<defs>
<linearGradient id="paint0_linear_1921_29102" x1="484.35" y1="391.461" x2="401.429" y2="384.425" gradientUnits="userSpaceOnUse">
<stop stop-color="#16A5A5"/>
<stop offset="1" stop-color="#3FC6C6"/>
</linearGradient>
<linearGradient id="paint1_linear_1921_29102" x1="484.35" y1="194.461" x2="401.429" y2="187.426" gradientUnits="userSpaceOnUse">
<stop stop-color="#16A5A5"/>
<stop offset="1" stop-color="#3FC6C6"/>
</linearGradient>
<linearGradient id="paint2_linear_1921_29102" x1="484.35" y1="194.461" x2="401.429" y2="187.426" gradientUnits="userSpaceOnUse">
<stop stop-color="#16A5A5"/>
<stop offset="1" stop-color="#3FC6C6"/>
</linearGradient>
<linearGradient id="paint3_linear_1921_29102" x1="293.38" y1="403.522" x2="286.344" y2="486.443" gradientUnits="userSpaceOnUse">
<stop stop-color="#16A5A5"/>
<stop offset="1" stop-color="#3FC6C6"/>
</linearGradient>
<linearGradient id="paint4_linear_1921_29102" x1="293.38" y1="403.522" x2="286.344" y2="486.443" gradientUnits="userSpaceOnUse">
<stop stop-color="#16A5A5"/>
<stop offset="1" stop-color="#3FC6C6"/>
</linearGradient>
<linearGradient id="paint5_linear_1921_29102" x1="391.88" y1="305.022" x2="384.844" y2="387.943" gradientUnits="userSpaceOnUse">
<stop stop-color="#16A5A5"/>
<stop offset="1" stop-color="#3FC6C6"/>
</linearGradient>
<linearGradient id="paint6_linear_1921_29102" x1="206.784" y1="299.13" x2="289.729" y2="305.882" gradientUnits="userSpaceOnUse">
<stop stop-color="#16A5A5"/>
<stop offset="1" stop-color="#3FC6C6"/>
</linearGradient>
<linearGradient id="paint7_linear_1921_29102" x1="502.441" y1="292.961" x2="585.362" y2="285.926" gradientUnits="userSpaceOnUse">
<stop stop-color="#16A5A5"/>
<stop offset="1" stop-color="#3FC6C6"/>
</linearGradient>
<linearGradient id="paint8_linear_1921_29102" x1="582.85" y1="194.461" x2="499.929" y2="187.426" gradientUnits="userSpaceOnUse">
<stop stop-color="#16A5A5"/>
<stop offset="1" stop-color="#3FC6C6"/>
</linearGradient>
<linearGradient id="paint9_linear_1921_29102" x1="582.85" y1="391.461" x2="499.929" y2="384.425" gradientUnits="userSpaceOnUse">
<stop stop-color="#16A5A5"/>
<stop offset="1" stop-color="#3FC6C6"/>
</linearGradient>
<linearGradient id="paint10_linear_1921_29102" x1="582.85" y1="489.961" x2="499.929" y2="482.926" gradientUnits="userSpaceOnUse">
<stop stop-color="#16A5A5"/>
<stop offset="1" stop-color="#3FC6C6"/>
</linearGradient>
<linearGradient id="paint11_linear_1921_29102" x1="502.441" y1="95.9612" x2="585.362" y2="88.9255" gradientUnits="userSpaceOnUse">
<stop stop-color="#16A5A5"/>
<stop offset="1" stop-color="#3FC6C6"/>
</linearGradient>
<linearGradient id="paint12_linear_1921_29102" x1="484.35" y1="200.492" x2="401.429" y2="207.528" gradientUnits="userSpaceOnUse">
<stop stop-color="#16A5A5"/>
<stop offset="1" stop-color="#3FC6C6"/>
</linearGradient>
<linearGradient id="paint13_linear_1921_29102" x1="305.441" y1="292.961" x2="388.362" y2="285.925" gradientUnits="userSpaceOnUse">
<stop stop-color="#16A5A5"/>
<stop offset="1" stop-color="#3FC6C6"/>
</linearGradient>
<linearGradient id="paint14_linear_1921_29102" x1="397.911" y1="403.522" x2="404.947" y2="486.443" gradientUnits="userSpaceOnUse">
<stop stop-color="#16A5A5"/>
<stop offset="1" stop-color="#3FC6C6"/>
</linearGradient>
<linearGradient id="paint15_linear_1921_29102" x1="490.38" y1="502.022" x2="483.344" y2="584.943" gradientUnits="userSpaceOnUse">
<stop stop-color="#16A5A5"/>
<stop offset="1" stop-color="#3FC6C6"/>
</linearGradient>
<linearGradient id="paint16_linear_1921_29102" x1="102.411" y1="582.431" x2="109.447" y2="499.51" gradientUnits="userSpaceOnUse">
<stop stop-color="#16A5A5"/>
<stop offset="1" stop-color="#3FC6C6"/>
</linearGradient>
<linearGradient id="paint17_linear_1921_29102" x1="582.85" y1="588.461" x2="499.929" y2="581.425" gradientUnits="userSpaceOnUse">
<stop stop-color="#16A5A5"/>
<stop offset="1" stop-color="#3FC6C6"/>
</linearGradient>
<linearGradient id="paint18_linear_1921_29102" x1="385.85" y1="397.492" x2="302.929" y2="404.528" gradientUnits="userSpaceOnUse">
<stop stop-color="#16A5A5"/>
<stop offset="1" stop-color="#3FC6C6"/>
</linearGradient>
</defs>
</svg>
