<svg width="15" height="12" viewBox="0 0 15 12" fill="none" xmlns="http://www.w3.org/2000/svg">
<path d="M13.7482 2.55658L5.8081 10.7368C5.70275 10.8454 5.57765 10.9316 5.43995 10.9904C5.30225 11.0493 5.15465 11.0795 5.00558 11.0795C4.85652 11.0795 4.70892 11.0493 4.57122 10.9904C4.43351 10.9316 4.30841 10.8454 4.20307 10.7368L0.800185 7.23099C0.694798 7.12241 0.6112 6.99352 0.554165 6.85166C0.497129 6.7098 0.467773 6.55775 0.467773 6.4042C0.467773 6.25066 0.497129 6.09861 0.554165 5.95675C0.6112 5.81489 0.694798 5.68599 0.800185 5.57742C0.905573 5.46884 1.03069 5.38272 1.16838 5.32396C1.30608 5.2652 1.45366 5.23495 1.6027 5.23495C1.75174 5.23495 1.89932 5.2652 2.03702 5.32396C2.17471 5.38272 2.29982 5.46884 2.40521 5.57742L5.00558 8.2579L12.1431 0.903013C12.356 0.683736 12.6446 0.560547 12.9456 0.560547C13.2466 0.560547 13.5353 0.683736 13.7482 0.903013C13.961 1.12229 14.0806 1.41969 14.0806 1.7298C14.0806 2.0399 13.961 2.33731 13.7482 2.55658Z" fill="white"/>
</svg>
