<svg width="19" height="19" viewBox="0 0 19 19" fill="none" xmlns="http://www.w3.org/2000/svg">
<path d="M12.9395 0.859375H5.43945C4.04752 0.860864 2.71303 1.41447 1.72879 2.39871C0.744544 3.38295 0.190942 4.71745 0.189453 6.10938V13.6094C0.190942 15.0013 0.744544 16.3358 1.72879 17.32C2.71303 18.3043 4.04752 18.8579 5.43945 18.8594H9.93945C10.0201 18.8593 10.1001 18.8463 10.1766 18.8209C12.6357 18.0006 17.3307 13.3056 18.151 10.8466C18.1764 10.7701 18.1894 10.69 18.1895 10.6094V6.10938C18.188 4.71745 17.6344 3.38295 16.6501 2.39871C15.6659 1.41447 14.3314 0.860864 12.9395 0.859375ZM1.68945 13.6094V6.10938C1.68945 5.11481 2.08454 4.16099 2.7878 3.45772C3.49106 2.75446 4.44489 2.35938 5.43945 2.35938H12.9395C13.934 2.35938 14.8878 2.75446 15.5911 3.45772C16.2944 4.16099 16.6895 5.11481 16.6895 6.10938V9.85938H14.4395C13.0475 9.86086 11.713 10.4145 10.7288 11.3987C9.74454 12.383 9.19094 13.7174 9.18945 15.1094V17.3594H5.43945C4.44489 17.3594 3.49106 16.9643 2.7878 16.261C2.08454 15.5578 1.68945 14.6039 1.68945 13.6094ZM10.6895 16.9037V15.1094C10.6895 14.1148 11.0845 13.161 11.7878 12.4577C12.4911 11.7545 13.4449 11.3594 14.4395 11.3594H16.2338C15.0957 13.1875 12.5176 15.7656 10.6895 16.9037Z" fill="currentcolor"/>
</svg>
