<svg width="164" height="156" viewBox="0 0 164 156" fill="none" xmlns="http://www.w3.org/2000/svg">
<path d="M137.192 82.8178V47.7561C137.192 42.3673 134.318 37.3378 129.647 34.6434L77.1962 4.28643C72.5259 1.59202 66.7779 1.59202 62.1076 4.28643L9.6566 34.6434C4.9863 37.3378 2.1123 42.3673 2.1123 47.7561V108.47C2.1123 113.859 4.9863 118.888 9.6566 121.583L62.1076 151.94C66.7779 154.454 72.5259 154.454 77.1962 151.94L113.607 131.404" stroke="currentColor" stroke-width="2.57872" stroke-linecap="round" stroke-linejoin="round"/>
<path d="M39.6543 60.6894L69.6519 43.2656L99.6496 60.6894V95.3574L69.6519 112.602L39.6543 95.3574V60.6894Z" stroke="currentColor" stroke-width="2.57872" stroke-linecap="round" stroke-linejoin="round"/>
<circle cx="134.296" cy="111.216" r="28.2376" stroke="currentColor" stroke-width="2.57872"/>
<path fill-rule="evenodd" clip-rule="evenodd" d="M116.817 111.217C116.817 110.144 117.688 109.273 118.761 109.273L149.831 109.273C150.905 109.273 151.775 110.144 151.775 111.217C151.775 112.291 150.905 113.161 149.831 113.161L118.761 113.161C117.688 113.161 116.817 112.291 116.817 111.217Z" fill="currentColor"/>
<path fill-rule="evenodd" clip-rule="evenodd" d="M134.296 128.697C133.222 128.697 132.352 127.827 132.352 126.753V95.6835C132.352 94.61 133.222 93.7397 134.296 93.7397C135.369 93.7397 136.24 94.61 136.24 95.6835V126.753C136.24 127.827 135.369 128.697 134.296 128.697Z" fill="currentColor"/>
</svg>
