<svg width="178" height="196" viewBox="0 0 178 196" fill="none" xmlns="http://www.w3.org/2000/svg">
<path fill-rule="evenodd" clip-rule="evenodd" d="M23.9014 28.8141C13.5216 28.8141 5.10709 37.2286 5.10709 47.6084V159.34C5.10709 169.72 13.5216 178.134 23.9013 178.134H82.4549C83.6618 178.134 84.6403 179.113 84.6403 180.319C84.6403 181.526 83.6618 182.505 82.4549 182.505H23.9013C11.1077 182.505 0.736328 172.134 0.736328 159.34V47.6084C0.736328 34.8147 11.1077 24.4433 23.9014 24.4434L81.3669 24.4435C81.9151 24.4435 82.4433 24.6495 82.8468 25.0208L114.317 53.9827C114.767 54.3965 115.023 54.9797 115.023 55.5908V105.325C115.023 106.532 114.044 107.51 112.837 107.51C111.63 107.51 110.652 106.532 110.652 105.325V56.5496L80.5143 28.8142L23.9014 28.8141Z" fill="currentColor"/>
<path fill-rule="evenodd" clip-rule="evenodd" d="M81.2835 25.0173C82.4905 25.0173 83.4689 25.9958 83.4689 27.2027V53.9068H112.573C113.779 53.9068 114.758 54.8852 114.758 56.0922C114.758 57.2991 113.779 58.2775 112.573 58.2775H81.2835C80.0766 58.2775 79.0981 57.2991 79.0981 56.0922V27.2027C79.0981 25.9958 80.0766 25.0173 81.2835 25.0173Z" fill="currentColor"/>
<path fill-rule="evenodd" clip-rule="evenodd" d="M157.118 4.78896C156.157 4.64106 155.172 4.56571 154.167 4.56911L149.637 4.58446C148.43 4.58855 147.448 3.61344 147.444 2.4065C147.44 1.19955 148.415 0.217815 149.622 0.213726L154.152 0.198378C155.386 0.194199 156.599 0.2867 157.783 0.469137C158.976 0.652863 159.794 1.76883 159.61 2.96171C159.427 4.1546 158.311 4.97268 157.118 4.78896ZM138.223 2.43773C138.227 3.64468 137.252 4.62641 136.045 4.6305L126.984 4.6612C125.778 4.66529 124.796 3.69018 124.792 2.48324C124.788 1.27629 125.763 0.294554 126.97 0.290465L136.03 0.259769C137.237 0.255681 138.219 1.23079 138.223 2.43773ZM115.571 2.51447C115.575 3.72142 114.6 4.70315 113.393 4.70724L104.332 4.73794C103.125 4.74203 102.144 3.76692 102.14 2.55997C102.136 1.35303 103.111 0.371294 104.318 0.367205L113.378 0.336509C114.585 0.33242 115.567 1.30753 115.571 2.51447ZM92.9191 2.59121C92.9232 3.79816 91.9481 4.77989 90.7411 4.78398L86.2107 4.79933C85.2101 4.80272 84.2295 4.88406 83.2741 5.03719C82.0823 5.22822 80.9614 4.41699 80.7704 3.22525C80.5793 2.03351 81.3906 0.912557 82.5823 0.721529C83.7608 0.532633 84.9678 0.432757 86.1959 0.428596L90.7263 0.413248C91.9333 0.40916 92.915 1.38427 92.9191 2.59121ZM164.759 5.08162C165.467 4.10431 166.833 3.88619 167.811 4.59444C169.782 6.02268 171.518 7.75368 172.953 9.71967C173.665 10.6946 173.451 12.0617 172.476 12.7733C171.502 13.4848 170.134 13.2713 169.423 12.2964C168.258 10.6998 166.847 9.2935 165.246 8.13357C164.269 7.42533 164.05 6.05892 164.759 5.08162ZM75.6721 5.35486C76.3843 6.32929 76.1717 7.69657 75.1972 8.40876C73.6083 9.57012 72.2082 10.9749 71.0522 12.5678C70.3433 13.5447 68.9768 13.7619 68 13.053C67.0231 12.3441 66.8059 10.9776 67.5148 10.0007C68.9382 8.03932 70.6616 6.31006 72.6182 4.88003C73.5926 4.16784 74.9599 4.38043 75.6721 5.35486ZM174.614 17.9144C175.806 17.7267 176.925 18.541 177.113 19.7332C177.299 20.9171 177.396 22.1296 177.396 23.3633V27.8446C177.396 29.0515 176.417 30.03 175.21 30.03C174.003 30.03 173.025 29.0515 173.025 27.8446V23.3633C173.025 22.3581 172.946 21.373 172.795 20.4132C172.607 19.2209 173.422 18.1022 174.614 17.9144ZM65.8876 18.1585C67.08 18.3455 67.895 19.4637 67.708 20.6561C67.5581 21.6119 67.4801 22.5929 67.4801 23.5935V24.1367C67.4801 24.4247 67.4244 24.6997 67.3232 24.9515C67.4244 25.2033 67.4801 25.4783 67.4801 25.7663V26.3095C67.4801 27.5165 66.5017 28.4949 65.2948 28.4949C64.0878 28.4949 63.1094 27.5165 63.1094 26.3095V25.7663C63.1094 25.4783 63.1651 25.2033 63.2663 24.9515C63.1651 24.6997 63.1094 24.4247 63.1094 24.1367V23.5935C63.1094 22.3653 63.2052 21.158 63.3901 19.9789C63.5771 18.7865 64.6953 17.9715 65.8876 18.1585ZM175.21 39.1031C176.417 39.1031 177.396 40.0816 177.396 41.2885V50.2511C177.396 51.4581 176.417 52.4365 175.21 52.4365C174.003 52.4365 173.025 51.4581 173.025 50.2511V41.2885C173.025 40.0816 174.003 39.1031 175.21 39.1031ZM175.21 61.5097C176.417 61.5097 177.396 62.4881 177.396 63.6951V72.6577C177.396 73.8647 176.417 74.8431 175.21 74.8431C174.003 74.8431 173.025 73.8647 173.025 72.6577V63.6951C173.025 62.4881 174.003 61.5097 175.21 61.5097ZM175.21 83.9163C176.417 83.9163 177.396 84.8947 177.396 86.1016V95.0643C177.396 96.2712 176.417 97.2496 175.21 97.2496C174.003 97.2496 173.025 96.2712 173.025 95.0643V86.1016C173.025 84.8947 174.003 83.9163 175.21 83.9163ZM175.21 106.323C176.417 106.323 177.396 107.301 177.396 108.508V117.471C177.396 118.678 176.417 119.656 175.21 119.656C174.003 119.656 173.025 118.678 173.025 117.471V108.508C173.025 107.301 174.003 106.323 175.21 106.323ZM175.21 128.729C176.417 128.729 177.396 129.708 177.396 130.915V135.396C177.396 136.627 177.299 137.837 177.114 139.018C176.926 140.211 175.808 141.025 174.616 140.838C173.423 140.651 172.609 139.532 172.796 138.34C172.947 137.382 173.025 136.399 173.025 135.396V130.915C173.025 129.708 174.003 128.729 175.21 128.729ZM172.491 145.961C173.467 146.672 173.682 148.038 172.972 149.014C171.543 150.978 169.812 152.708 167.849 154.137C166.873 154.847 165.506 154.632 164.796 153.656C164.086 152.68 164.301 151.314 165.277 150.603C166.872 149.443 168.277 148.037 169.438 146.442C170.148 145.466 171.515 145.251 172.491 145.961ZM159.673 155.781C159.86 156.973 159.045 158.092 157.853 158.279C156.671 158.465 155.462 158.561 154.231 158.561H154.163C154.129 158.561 154.096 158.56 154.062 158.559C154.029 158.56 153.995 158.561 153.961 158.561H153.893C152.687 158.561 151.708 157.583 151.708 156.376C151.708 155.169 152.687 154.19 153.893 154.19H153.961C153.995 154.19 154.029 154.191 154.062 154.193C154.096 154.191 154.129 154.19 154.163 154.19H154.231C155.233 154.19 156.217 154.112 157.174 153.961C158.367 153.774 159.485 154.589 159.673 155.781Z" fill="currentColor"/>
<path fill-rule="evenodd" clip-rule="evenodd" d="M63.2996 146.311L63.2788 146.273L63.2568 146.233C63.0356 145.831 62.7198 145.258 62.4767 144.676C62.2122 144.043 61.8977 143.098 61.9195 141.95C61.967 139.451 63.5215 137.794 64.5869 136.826C66.5127 135.015 69.2655 134.026 71.9128 134.02C74.7151 134.015 77.9332 135.14 79.9691 138.234C80.0565 138.366 80.1365 138.504 80.2089 138.645L84.3356 146.71V123.431C84.3356 118.324 88.4754 114.184 93.5821 114.184C96.171 114.184 98.5113 115.248 100.19 116.963C101.786 114.192 104.778 112.327 108.205 112.327C111.677 112.327 114.701 114.241 116.282 117.072C117.947 115.295 120.315 114.184 122.943 114.184C127.915 114.184 131.959 118.161 132.067 123.107C133.583 122.02 135.44 121.38 137.448 121.38C142.552 121.38 146.69 125.518 146.69 130.622V171.198C146.69 184.546 135.926 195.398 122.578 195.506L99.5475 195.694C89.2354 195.778 80.7821 187.536 80.605 177.225C80.6029 177.106 80.5712 176.989 80.5126 176.885L63.2996 146.311ZM67.5564 140.034C65.7639 141.651 66.1198 142.37 67.1083 144.167L84.3213 174.74C84.7359 175.477 84.9606 176.305 84.9751 177.15C85.111 185.063 91.5982 191.388 99.5119 191.323L122.543 191.136C133.491 191.047 142.319 182.146 142.319 171.198V130.622C142.319 127.932 140.138 125.751 137.448 125.751C134.758 125.751 132.577 127.932 132.577 130.622L132.577 144.831C132.577 146.132 131.556 147.204 130.257 147.267C128.864 147.335 127.699 146.225 127.699 144.831L127.699 123.311C127.699 120.684 125.569 118.555 122.943 118.555C120.316 118.555 118.186 120.684 118.186 123.311L118.186 139.169C118.186 140.531 117.117 141.653 115.757 141.72C114.299 141.791 113.078 140.628 113.078 139.169L113.078 121.572C113.078 118.88 110.896 116.698 108.205 116.698C105.513 116.698 103.331 118.88 103.331 121.572V143.019C103.331 144.319 102.311 145.39 101.013 145.453C99.6226 145.521 98.4579 144.412 98.4579 143.019V123.431C98.4579 120.738 96.275 118.555 93.5821 118.555C90.8893 118.555 88.7063 120.738 88.7063 123.431V155.778C88.7063 158.073 85.621 158.816 84.5755 156.773L76.318 140.636C74.2072 137.429 69.6255 138.058 67.5564 140.034Z" fill="currentColor"/>
</svg>
