<svg width="91" height="92" viewBox="0 0 91 92" fill="none" xmlns="http://www.w3.org/2000/svg">
<path d="M38.0332 4.48048C42.4574 1.90376 47.9251 1.90376 52.3493 4.48048L77.1313 18.9139C81.5056 21.4615 84.1961 26.1421 84.1961 31.2042V60.2869C84.1961 65.3489 81.5056 70.0295 77.1313 72.5772L52.3493 87.0106C47.9251 89.5873 42.4574 89.5873 38.0332 87.0106L13.2512 72.5772C8.87694 70.0295 6.18642 65.349 6.18642 60.2869V31.2042C6.18642 26.1421 8.87694 21.4615 13.2512 18.9139L38.0332 4.48048Z" fill="url(#paint0_radial_7083_36273)"/>
<path d="M45.1818 21.918C47.9575 21.918 50.1863 24.2077 50.1115 26.9823L49.4721 50.699C49.4095 53.0189 47.5108 54.8671 45.19 54.8671V54.8671C42.8704 54.8671 40.9722 53.0207 40.9081 50.7019L40.2523 26.9857C40.1755 24.2098 42.4049 21.918 45.1818 21.918V21.918ZM45.1915 69.5725C43.6882 69.5725 42.3975 69.0363 41.3193 67.9641C40.2412 66.8765 39.7097 65.5745 39.7249 64.058C39.7097 62.5568 40.2412 61.2701 41.3193 60.1978C42.3975 59.1256 43.6882 58.5894 45.1915 58.5894C46.634 58.5894 47.902 59.1256 48.9953 60.1978C50.0886 61.2701 50.6428 62.5568 50.658 64.058C50.6428 65.069 50.3771 65.9957 49.8608 66.8382C49.3597 67.6654 48.6992 68.3317 47.8792 68.8372C47.0592 69.3274 46.1633 69.5725 45.1915 69.5725Z" fill="white"/>
<defs>
<radialGradient id="paint0_radial_7083_36273" cx="0" cy="0" r="1" gradientUnits="userSpaceOnUse" gradientTransform="translate(17.7144 11.9931) rotate(49.9871) scale(94.8678 94.728)">
<stop offset="0.542725" stop-color="#C44646"/>
<stop offset="1" stop-color="#B51515"/>
</radialGradient>
</defs>
</svg>
