<svg width="214" height="213" viewBox="0 0 214 213" fill="none" xmlns="http://www.w3.org/2000/svg">
<path d="M98.9772 29.118C104.546 25.9026 111.408 25.9026 116.977 29.118L169.437 59.4057C175.006 62.6211 178.437 68.5634 178.437 74.9942V135.57C178.437 142 175.006 147.943 169.437 151.158L116.977 181.446C111.408 184.661 104.546 184.661 98.9772 181.446L46.5173 151.158C40.9481 147.943 37.5174 142 37.5174 135.57V74.9942C37.5174 68.5634 40.9481 62.6211 46.5174 59.4057L98.9772 29.118Z" fill="url(#paint0_radial_2144_43124)"/>
<path d="M108.893 62.6133C113.396 62.6133 117.012 66.329 116.89 70.8308L115.714 114.087C115.6 118.278 112.169 121.616 107.976 121.616C103.786 121.616 100.356 118.281 100.24 114.092L99.0329 70.8363C98.9073 66.3324 102.524 62.6133 107.03 62.6133H108.893ZM107.979 147.95C105.263 147.95 102.932 146.99 100.984 145.069C99.0367 143.122 98.0767 140.79 98.1041 138.075C98.0767 135.386 99.0367 133.082 100.984 131.162C102.932 129.242 105.263 128.282 107.979 128.282C110.585 128.282 112.875 129.242 114.85 131.162C116.825 133.082 117.827 135.386 117.854 138.075C117.827 139.885 117.347 141.545 116.414 143.053C115.509 144.534 114.316 145.728 112.834 146.633C111.353 147.511 109.735 147.95 107.979 147.95Z" fill="white"/>
<path d="M80.6253 15.567L88.3907 11.0836L88.6407 11.5166L92.5234 9.27491C93.6476 8.62587 94.8038 8.05679 95.9843 7.56767L95.7928 7.10575C98.2351 6.09375 100.779 5.41818 103.358 5.07904L103.423 5.57478C105.979 5.23862 108.568 5.23862 111.124 5.57478L111.189 5.07905C113.768 5.41818 116.312 6.09375 118.754 7.10575L118.563 7.56767C119.743 8.05679 120.899 8.62587 122.023 9.27491L125.906 11.5166L126.156 11.0836L133.922 15.567L133.672 16L141.437 20.4833L141.687 20.0503L149.452 24.5337L149.202 24.9667L156.968 29.4501L157.218 29.0171L164.983 33.5005L164.733 33.9335L172.499 38.4168L172.749 37.9838L180.514 42.4672L180.264 42.9002L184.147 45.1419C185.271 45.7909 186.342 46.5077 187.356 47.2854L187.66 46.8887C189.758 48.4978 191.615 50.3633 193.198 52.4266L192.801 52.731C194.37 54.7762 195.665 57.0191 196.652 59.4004L197.114 59.2091C198.109 61.6115 198.796 64.1526 199.141 66.7737L198.645 66.8389C198.812 68.1057 198.897 69.3916 198.897 70.6896V75.173H199.397V84.1398H198.897V93.1065H199.397V102.073H198.897V111.04H199.397V120.007H198.897V128.974H199.397V137.94H198.897V142.424C198.897 143.722 198.812 145.008 198.645 146.274L199.141 146.34C198.796 148.961 198.109 151.502 197.114 153.904L196.652 153.713C195.665 156.094 194.37 158.337 192.801 160.382L193.198 160.687C191.615 162.75 189.758 164.616 187.66 166.225L187.356 165.828C186.342 166.606 185.271 167.322 184.147 167.971L180.264 170.213L180.514 170.646L172.749 175.129L172.499 174.696L164.733 179.18L164.983 179.613L157.218 184.096L156.968 183.663L149.202 188.147L149.452 188.58L141.687 193.063L141.437 192.63L133.672 197.113L133.922 197.546L126.156 202.03L125.906 201.597L122.023 203.838C120.899 204.487 119.743 205.056 118.563 205.546L118.754 206.008C116.312 207.02 113.768 207.695 111.189 208.034L111.124 207.539C108.568 207.875 105.979 207.875 103.423 207.539L103.358 208.034C100.779 207.695 98.2351 207.02 95.7928 206.008L95.9843 205.546C94.8038 205.056 93.6476 204.487 92.5234 203.838L88.6407 201.597L88.3907 202.03L80.6253 197.546L80.8753 197.113L73.1099 192.63L72.8599 193.063L65.0944 188.58L65.3444 188.147L57.579 183.663L57.329 184.096L49.5636 179.613L49.8136 179.18L42.0481 174.696L41.7981 175.129L34.0327 170.646L34.2827 170.213L30.4 167.971C29.2758 167.322 28.2049 166.606 27.1911 165.828L26.8867 166.225C24.7892 164.616 22.932 162.75 21.3492 160.687L21.7459 160.382C20.1769 158.337 18.882 156.094 17.8953 153.713L17.4333 153.904C16.4379 151.502 15.7509 148.961 15.4061 146.34L15.9019 146.274C15.7353 145.008 15.65 143.722 15.65 142.424V137.94H15.15V128.974H15.65V120.007H15.15V111.04H15.65V102.073H15.15V93.1065H15.65V84.1398H15.15V75.173H15.65V70.6897C15.65 69.3916 15.7353 68.1057 15.9019 66.8389L15.4061 66.7737C15.7509 64.1526 16.4379 61.6115 17.4333 59.2091L17.8953 59.4005C18.882 57.0191 20.1769 54.7762 21.7459 52.731L21.3492 52.4266C22.932 50.3633 24.7892 48.4978 26.8867 46.8887L27.1911 47.2854C28.2049 46.5077 29.2758 45.7909 30.4 45.1419L34.2827 42.9002L34.0327 42.4672L41.7981 37.9838L42.0481 38.4168L49.8136 33.9335L49.5636 33.5005L57.329 29.0171L57.579 29.4501L65.3444 24.9667L65.0944 24.5337L72.8599 20.0503L73.1099 20.4833L80.8753 16L80.6253 15.567Z" stroke="#B3B3B3" stroke-dasharray="8 8"/>
<defs>
<radialGradient id="paint0_radial_2144_43124" cx="0" cy="0" r="1" gradientUnits="userSpaceOnUse" gradientTransform="translate(58.3419 44.8403) rotate(49.7405) scale(170.5)">
<stop offset="0.643837" stop-color="#C44646"/>
<stop offset="1" stop-color="#940404"/>
</radialGradient>
</defs>
</svg>
