<svg width="35" height="26" viewBox="0 0 35 26" fill="none" xmlns="http://www.w3.org/2000/svg">
<path fill-rule="evenodd" clip-rule="evenodd" d="M25.0171 8.60752C25.5285 8.32329 26.1414 8.32603 26.6331 8.60547L26.6362 8.60721L32.3027 11.7751L32.3036 11.7756C32.8112 12.0579 33.115 12.5689 33.115 13.1401V19.7046C33.115 19.8988 33.0155 20.1314 32.8335 20.364C32.6534 20.5941 32.4374 20.7663 32.3046 20.8397L32.3026 20.8408L31.7886 21.1282C31.6354 21.2139 31.5404 21.3707 31.5385 21.541L31.5073 24.4202L28.1092 23.3705C27.9733 23.3285 27.8253 23.3439 27.7019 23.4129L26.6384 24.0075C26.1443 24.277 25.5271 24.2798 25.0134 24.0063L19.9815 21.1932C19.7413 21.0589 19.4332 21.1371 19.2933 21.3678C19.1535 21.5986 19.2349 21.8945 19.4752 22.0288L24.5113 24.8444L24.5194 24.8488C25.3359 25.286 26.3308 25.2885 27.1385 24.8466L27.1426 24.8444L28.0145 24.3569L31.8494 25.5415C32.0017 25.5886 32.1681 25.5633 32.2978 25.4735C32.4276 25.3836 32.5051 25.2399 32.5068 25.0863L32.5421 21.8257L32.807 21.6776C32.8073 21.6774 32.8077 21.6772 32.808 21.677C33.0717 21.5309 33.3865 21.2665 33.6381 20.945C33.8881 20.6255 34.1216 20.1908 34.1216 19.7046V13.1401C34.1216 12.2304 33.6323 11.3976 32.8086 10.9392C32.8084 10.9391 32.8082 10.939 32.808 10.9389L27.144 7.77237C26.333 7.31226 25.3319 7.31522 24.5123 7.77099L24.5113 7.77154L23.776 8.18265C23.5357 8.31695 23.4543 8.6129 23.5942 8.84366C23.734 9.07442 24.0421 9.15261 24.2823 9.0183L25.0167 8.60776C25.0168 8.60768 25.017 8.6076 25.0171 8.60752Z" fill="currentColor"/>
<path fill-rule="evenodd" clip-rule="evenodd" d="M12.9886 1.37415C12.2315 0.953447 11.321 0.956224 10.5888 1.37222L10.5858 1.37396L2.82903 5.71046L2.82803 5.71101C2.07485 6.12988 1.62477 6.88872 1.62477 7.73309V16.7193C1.62477 17.039 1.78561 17.3946 2.04735 17.729C2.30714 18.061 2.62111 18.3137 2.82703 18.4276L2.82903 18.4287L3.53268 18.8221C3.68593 18.9078 3.78094 19.0646 3.78278 19.2349L3.82809 23.4183L8.7197 21.9072C8.85557 21.8653 9.0036 21.8807 9.12696 21.9497L10.5817 22.763C10.5824 22.7633 10.583 22.7637 10.5836 22.764C11.318 23.165 12.2331 23.1678 12.9924 22.7629L20.7419 18.4305C20.7423 18.4302 20.7428 18.4299 20.7433 18.4297C21.4828 18.0088 21.9492 17.228 21.9492 16.4061V7.73309C21.9492 6.89425 21.4845 6.13138 20.7434 5.70958C20.7429 5.7093 20.7424 5.70901 20.7419 5.70872L12.9892 1.37451C12.989 1.37439 12.9888 1.37427 12.9886 1.37415ZM10.0779 0.539129C11.1294 -0.0575837 12.4284 -0.0546274 13.4936 0.53774L13.4945 0.538294L21.2544 4.87652C22.2964 5.46863 22.9558 6.54503 22.9558 7.73309V16.4061C22.9558 17.5736 22.298 18.6696 21.2544 19.2626L21.2513 19.2644L13.4945 23.6009L13.4865 23.6053C12.4244 24.1741 11.1316 24.1766 10.0835 23.6031L10.0794 23.6009L8.8144 22.8937L3.48601 24.5396C3.33377 24.5866 3.16732 24.5614 3.0376 24.4715C2.90787 24.3817 2.83031 24.238 2.82865 24.0844L2.77921 19.5196L2.32468 19.2655C2.32433 19.2653 2.32399 19.2651 2.32364 19.2649C1.98678 19.0783 1.57406 18.7334 1.24275 18.31C0.913027 17.8887 0.618164 17.3309 0.618164 16.7193V7.73309C0.618164 6.55021 1.25379 5.4695 2.32309 4.87457C2.32328 4.87446 2.32348 4.87435 2.32368 4.87424L10.0779 0.539129Z" fill="currentColor"/>
<path d="M11.4872 15.2973C11.3884 15.2973 11.3094 15.2688 11.2501 15.2119C11.1908 15.1549 11.1612 15.079 11.1612 14.9841C11.1612 14.8702 11.1612 14.7563 11.1612 14.6424C11.1612 14.5285 11.1612 14.4146 11.1612 14.3008C11.1612 13.8642 11.2452 13.4798 11.4131 13.1476C11.5811 12.8154 11.7886 12.5165 12.0356 12.2507C12.2826 11.9755 12.5346 11.7193 12.7915 11.482C13.0484 11.2352 13.2707 10.9837 13.4584 10.7275C13.6462 10.4712 13.7598 10.196 13.7993 9.90176C13.8487 9.50314 13.7697 9.16622 13.5622 8.89098C13.3547 8.61575 13.0731 8.40695 12.7174 8.26459C12.3617 8.12223 11.9912 8.05104 11.6058 8.05104C11.0327 8.05104 10.5288 8.19815 10.0941 8.49237C9.65934 8.78658 9.37774 9.29909 9.24929 10.0299C9.22953 10.1533 9.18507 10.2387 9.1159 10.2861C9.04674 10.3241 8.97263 10.3431 8.89359 10.3431H8.65645C8.56753 10.3431 8.49342 10.3194 8.43414 10.2719C8.37486 10.215 8.34521 10.1438 8.34521 10.0584C8.3551 9.65974 8.43908 9.2896 8.59717 8.94793C8.76514 8.60626 8.99239 8.3073 9.27893 8.05104C9.57535 7.79479 9.91623 7.59548 10.3016 7.45312C10.6968 7.30127 11.1315 7.22534 11.6058 7.22534C12.1492 7.22534 12.6186 7.30127 13.0138 7.45312C13.4189 7.60498 13.7499 7.80903 14.0068 8.06528C14.2637 8.31204 14.4514 8.59677 14.57 8.91946C14.6886 9.23265 14.733 9.55534 14.7034 9.88752C14.6737 10.2861 14.5651 10.642 14.3773 10.9552C14.1896 11.2589 13.9673 11.5437 13.7104 11.8094C13.4535 12.0657 13.1966 12.3219 12.9397 12.5782C12.6927 12.8249 12.4852 13.0907 12.3172 13.3754C12.1492 13.6506 12.0653 13.9591 12.0653 14.3008C12.0653 14.4146 12.0653 14.5285 12.0653 14.6424C12.0653 14.7563 12.0653 14.8702 12.0653 14.9841C12.0653 15.079 12.0356 15.1549 11.9763 15.2119C11.9171 15.2688 11.838 15.2973 11.7392 15.2973H11.4872ZM11.3094 17.3331C11.2106 17.3331 11.1315 17.3046 11.0723 17.2477C11.013 17.1907 10.9833 17.1148 10.9833 17.0199V16.4789C10.9833 16.384 11.013 16.3081 11.0723 16.2511C11.1315 16.1847 11.2106 16.1515 11.3094 16.1515H11.8726C11.9714 16.1515 12.0504 16.1847 12.1097 16.2511C12.1789 16.3081 12.2135 16.384 12.2135 16.4789V17.0199C12.2135 17.1148 12.1789 17.1907 12.1097 17.2477C12.0504 17.3046 11.9714 17.3331 11.8726 17.3331H11.3094Z" fill="currentColor"/>
</svg>
