<svg width="67" height="67" viewBox="0 0 67 67" fill="none" xmlns="http://www.w3.org/2000/svg">
<path d="M29.665 2.31721C32.1402 0.888151 35.1898 0.888151 37.665 2.31721L58.4037 14.2907C60.8789 15.7198 62.4037 18.3608 62.4037 21.2189V45.1659C62.4037 48.024 60.8789 50.665 58.4037 52.0941L37.665 64.0676C35.1898 65.4966 32.1402 65.4966 29.665 64.0676L8.92636 52.0941C6.45115 50.665 4.92636 48.024 4.92636 45.1659V21.2189C4.92636 18.3608 6.45115 15.7198 8.92636 14.2907L29.665 2.31721Z" fill="#F9F9F9" stroke="#76BFBF" stroke-width="1.5"/>
<path d="M33.6586 15.7852C35.7035 15.7852 37.3454 17.4724 37.2898 19.5165L36.8203 36.7798C36.7739 38.4893 35.3747 39.8509 33.6646 39.8509C31.9554 39.8509 30.5566 38.4906 30.5089 36.782L30.0274 19.5191C29.9703 17.4739 31.6127 15.7852 33.6586 15.7852ZM33.6657 50.5916C32.558 50.5916 31.607 50.2 30.8127 49.4168C30.0183 48.6224 29.6267 47.6714 29.6379 46.5638C29.6267 45.4674 30.0183 44.5276 30.8127 43.7444C31.607 42.9612 32.558 42.5696 33.6657 42.5696C34.7285 42.5696 35.6628 42.9612 36.4683 43.7444C37.2739 44.5276 37.6822 45.4674 37.6934 46.5638C37.6822 47.3022 37.4864 47.9791 37.106 48.5945C36.7368 49.1986 36.2501 49.6853 35.646 50.0545C35.0418 50.4125 34.3817 50.5916 33.6657 50.5916Z" fill="#F9F9F9"/>
<path d="M35.3606 15.6562C36.4865 15.6562 37.3905 16.5852 37.3599 17.7106L36.8142 37.7764C36.7847 38.8594 35.8983 39.7221 34.8149 39.7221H32.5639C31.4811 39.7221 30.5949 38.8603 30.5647 37.7778L30.005 17.712C29.9736 16.586 30.8778 15.6562 32.0042 15.6562H35.3606ZM33.6901 50.4627C32.5825 50.4627 31.6315 50.0711 30.8371 49.288C30.0427 48.4936 29.6512 47.5426 29.6623 46.435C29.6512 45.3385 30.0427 44.3987 30.8371 43.6156C31.6315 42.8324 32.5825 42.4408 33.6901 42.4408C34.753 42.4408 35.6872 42.8324 36.4927 43.6156C37.2983 44.3987 37.7067 45.3385 37.7178 46.435C37.7067 47.1734 37.5109 47.8503 37.1305 48.4656C36.7613 49.0698 36.2746 49.5565 35.6704 49.9257C35.0662 50.2837 34.4061 50.4627 33.6901 50.4627Z" fill="#F9F9F9" stroke="#76BFBF" stroke-width="1.5"/>
</svg>
