<svg width="30" height="35" viewBox="0 0 30 35" fill="none" xmlns="http://www.w3.org/2000/svg">
<path fill-rule="evenodd" clip-rule="evenodd" d="M13.3739 7.95651C13.078 7.78896 12.7286 7.7925 12.4501 7.95387L12.4463 7.95613L8.26196 10.3418C7.97097 10.5068 7.79587 10.8046 7.79587 11.1432V16.0853C7.79587 16.1528 7.83383 16.2733 7.95023 16.425C8.06418 16.5734 8.19736 16.6781 8.26069 16.7138L8.26322 16.7153L12.4433 19.0985C12.7248 19.2546 13.0801 19.2582 13.379 19.0969L17.5541 16.7165C17.842 16.5488 18.0236 16.2366 18.0236 15.9131V11.1432C18.0236 10.8117 17.844 10.5086 17.5541 10.3398L13.3745 7.95683C13.3743 7.95672 13.3741 7.95662 13.3739 7.95651ZM11.8028 6.87716C12.4859 6.48235 13.3273 6.48619 14.0136 6.87543L14.0149 6.87614L18.2018 9.2633C18.873 9.65222 19.2992 10.3604 19.2992 11.1432V15.9131C19.2992 16.6833 18.875 17.4029 18.2018 17.793L18.1979 17.7952L14.0149 20.1802L14.0046 20.1859C13.3222 20.5586 12.4885 20.5618 11.8097 20.1831L11.8046 20.1802L7.62408 17.7967C7.62362 17.7964 7.62315 17.7961 7.62268 17.7959C7.39354 17.6663 7.13521 17.4424 6.93061 17.1758C6.72806 16.9119 6.52026 16.5301 6.52026 16.0853V11.1432C6.52026 10.3671 6.93054 9.65327 7.62218 9.26071C7.62239 9.26059 7.6226 9.26047 7.62281 9.26035L11.8028 6.87716Z" fill="currentColor"/>
<path fill-rule="evenodd" clip-rule="evenodd" d="M12.5881 1.9964C6.51946 1.9964 1.40198 6.33912 1.3013 12.7494C1.24999 16.0163 2.08099 18.287 3.02731 20.0644C3.41321 20.7893 3.81551 21.4278 4.19867 22.036C4.29195 22.1841 4.38409 22.3303 4.47458 22.4756C4.92628 23.2006 5.34731 23.9165 5.58616 24.6476C5.96717 25.814 5.9701 27.5534 5.88568 29.2669C5.84419 30.109 5.77939 30.9731 5.71767 31.796L5.71094 31.8857C5.66563 32.4901 5.62263 33.0696 5.59148 33.6067L17.0818 33.7248L16.9288 31.3776C16.8575 30.2828 17.741 29.4199 18.7847 29.3359C20.4328 29.2033 22.1404 28.7485 23.2651 27.4402C24.2827 26.2564 24.6621 24.6415 24.6211 23.4063C24.5915 22.5165 25.0615 21.4351 26.1179 21.1078L27.0024 20.8337C27.8964 20.5567 28.3092 19.5486 27.8586 18.7431L25.0179 13.6659C24.9721 13.584 24.9456 13.493 24.9404 13.3998C24.5356 6.16318 18.6863 1.9964 12.5881 1.9964ZM0.0258453 12.7302C0.138108 5.58206 5.88046 0.746826 12.5881 0.746826C19.2262 0.746826 25.6894 5.28609 26.2054 13.1884L28.9772 18.1425C29.8141 19.6384 29.0474 21.5106 27.3871 22.0251L26.5026 22.2992C26.1694 22.4024 25.8782 22.8286 25.896 23.3657C25.9447 24.8312 25.5074 26.7717 24.2408 28.245C22.7869 29.9363 20.6553 30.4391 18.8892 30.5813C18.465 30.6154 18.1793 30.9529 18.2018 31.298L18.3985 34.3169C18.4098 34.4903 18.3469 34.6604 18.2249 34.7865C18.1028 34.9126 17.9327 34.9832 17.7553 34.9814L4.91563 34.8494C4.74336 34.8476 4.57915 34.7777 4.46037 34.6554C4.34158 34.5332 4.27833 34.3691 4.285 34.2005C4.31388 33.4698 4.37509 32.6435 4.43876 31.7942L4.44507 31.7101C4.5071 30.8829 4.57086 30.0328 4.61156 29.2066C4.6973 27.4662 4.67165 25.9481 4.37125 25.0285C4.18421 24.4559 3.8396 23.8551 3.38572 23.1265C3.3012 22.9908 3.21316 22.8511 3.1225 22.7073C2.73763 22.0966 2.30565 21.4112 1.89629 20.6423C0.871365 18.7172 -0.0293152 16.2424 0.0258453 12.7302Z" fill="currentColor"/>
</svg>
