<svg width="32" height="29" viewBox="0 0 32 29" fill="none" xmlns="http://www.w3.org/2000/svg">
<path fill-rule="evenodd" clip-rule="evenodd" d="M20.3726 2.91612C19.5069 2.42349 18.4645 2.42636 17.626 2.91413C17.623 2.9159 17.6199 2.91764 17.6169 2.91934L15.7297 3.96551C15.4854 4.10092 15.1758 4.01596 15.0381 3.77572C14.9004 3.53549 14.9868 3.23097 15.2311 3.09555L17.1138 2.05185C18.2738 1.37926 19.7065 1.38292 20.882 2.05224L20.883 2.05282L29.5798 7.03069C30.7309 7.70036 31.4591 8.91756 31.4591 10.2609V20.213C31.4591 21.5329 30.7325 22.7726 29.5798 23.4432L29.5767 23.445L20.883 28.4211L20.8749 28.4256C19.7014 29.0691 18.2734 29.0717 17.1162 28.4234L17.1121 28.4211L8.42053 23.4461C8.42026 23.446 8.41998 23.4458 8.41971 23.4457C8.04944 23.2357 7.59226 22.8451 7.22484 22.3645C6.85911 21.886 6.53613 21.2575 6.53613 20.5724V18.0393C6.53613 17.7635 6.76345 17.5399 7.04387 17.5399C7.32428 17.5399 7.5516 17.7635 7.5516 18.0393V20.5724C7.5516 20.956 7.73937 21.3757 8.03653 21.7644C8.33172 22.1505 8.68917 22.4458 8.92731 22.5807L8.92932 22.5819L17.6189 27.5556C17.6195 27.556 17.6202 27.5564 17.6208 27.5567C18.4615 28.0268 19.5084 28.0297 20.3765 27.5555L29.0628 22.5837C29.0632 22.5834 29.0637 22.5831 29.0642 22.5828C29.9101 22.09 30.4436 21.176 30.4436 20.213V10.2609C30.4436 9.27826 29.9118 8.38487 29.0643 7.89111C29.0638 7.89081 29.0633 7.89051 29.0628 7.89022L20.3732 2.91649C20.373 2.91637 20.3728 2.91625 20.3726 2.91612Z" fill="currentColor"/>
<path fill-rule="evenodd" clip-rule="evenodd" d="M6.71658 0.978175C6.87467 0.887483 7.07016 0.887483 7.22825 0.978175L13.2496 4.43245C13.4056 4.52193 13.5015 4.68616 13.5015 4.86375V11.7723C13.5015 11.9499 13.4056 12.1141 13.2496 12.2036L7.22825 15.6579C7.07016 15.7486 6.87467 15.7486 6.71658 15.6579L0.69526 12.2036C0.539276 12.1141 0.443359 11.9499 0.443359 11.7723V4.86375C0.443359 4.68616 0.539276 4.52193 0.69526 4.43245L6.71658 0.978175ZM1.45883 5.15055V11.4855L6.97242 14.6485L12.486 11.4855V5.15055L6.97242 1.98755L1.45883 5.15055Z" fill="currentColor"/>
<path fill-rule="evenodd" clip-rule="evenodd" d="M18.7419 7.88638C18.9 7.79569 19.0955 7.79569 19.2536 7.88638L25.2768 11.3417C25.4328 11.4312 25.5287 11.5955 25.5287 11.773V18.6838C25.5287 18.8614 25.4328 19.0256 25.2768 19.1151L19.2536 22.5704C19.0955 22.6611 18.9 22.6611 18.7419 22.5704L12.7187 19.1151C12.5627 19.0256 12.4668 18.8614 12.4668 18.6838V11.773C12.4668 11.5955 12.5627 11.4312 12.7187 11.3417L18.7419 7.88638ZM13.4823 12.0598V18.397L18.9978 21.5611L24.5133 18.397V12.0598L18.9978 8.89575L13.4823 12.0598Z" fill="currentColor"/>
</svg>
