<svg width="32" height="31" viewBox="0 0 32 31" fill="none" xmlns="http://www.w3.org/2000/svg">
<path fill-rule="evenodd" clip-rule="evenodd" d="M17.6614 2.03423C16.72 1.51924 15.5871 1.52257 14.676 2.03258L14.675 2.03312L5.88548 6.93146C4.94826 7.44491 4.38832 8.37523 4.38832 9.40966L4.38836 19.6118C4.38836 20.266 4.3959 20.4074 4.40276 20.5344L4.4029 20.5369C4.41108 20.6884 4.41867 20.8289 4.41867 21.4442C4.41867 21.545 4.38932 21.6439 4.33384 21.7299L2.02013 25.3189H30.0276L28.0175 21.6995C27.9737 21.6207 27.9509 21.5331 27.9509 21.4442C27.9509 21.1143 27.95 20.9792 27.949 20.8244C27.9488 20.7994 27.9487 20.7738 27.9485 20.7469C27.9473 20.5518 27.9461 20.285 27.9461 19.6118L27.9461 9.40966C27.9461 8.38102 27.3673 7.44573 26.4447 6.9291C26.4445 6.92901 26.4444 6.92893 26.4442 6.92884L17.6631 2.03518C17.6626 2.03487 17.662 2.03455 17.6614 2.03423ZM14.0861 1.0879C15.3656 0.371874 16.9471 0.374987 18.2442 1.08558L18.2479 1.08763L27.0346 5.98444C28.3031 6.6945 29.1057 7.98519 29.1057 9.40966L29.1057 19.6118C29.1057 20.2837 29.1069 20.5482 29.1081 20.7405C29.1083 20.7673 29.1084 20.7928 29.1086 20.8179C29.1095 20.9505 29.1102 21.07 29.1104 21.3087L31.5005 25.6123C31.595 25.7823 31.5885 25.9868 31.4835 26.1512C31.3785 26.3156 31.1903 26.4161 30.9873 26.4161H0.987271C0.777623 26.4161 0.584306 26.309 0.481683 26.136C0.379061 25.9631 0.38312 25.7511 0.4923 25.5818L3.25889 21.2904C3.25775 20.8315 3.2514 20.7145 3.2453 20.602L3.24467 20.5904C3.23638 20.4369 3.22876 20.2748 3.22876 19.6118L3.22872 9.40966C3.22872 7.99153 4.00189 6.69632 5.30251 5.98291C5.30316 5.98255 5.30381 5.9822 5.30446 5.98184L14.0856 1.08818C14.0857 1.08809 14.0859 1.08799 14.0861 1.0879Z" fill="currentColor"/>
<path fill-rule="evenodd" clip-rule="evenodd" d="M11.0049 26.9932C11.8397 28.8138 13.7563 30.0872 15.9873 30.0872C18.2183 30.0872 20.1349 28.8138 20.9697 26.9932H19.6711C18.9295 28.1879 17.5574 28.9899 15.9873 28.9899C14.4172 28.9899 13.0451 28.1879 12.3036 26.9932H11.0049Z" fill="currentColor"/>
</svg>
