<svg width="46" height="50" viewBox="0 0 46 50" fill="none" xmlns="http://www.w3.org/2000/svg">
<path d="M26.0479 22.5969C24.0676 21.0393 21.5508 20.1074 18.8106 20.1074H12.8876C6.50454 20.1074 1.33325 25.1646 1.33325 31.4069C1.33325 32.4462 2.19513 33.2891 3.2579 33.2891H17.8773M15.8491 17.0654C18.0491 17.0654 20.1589 16.2108 21.7144 14.6895C23.27 13.1683 24.1439 11.105 24.1439 8.95362C24.1439 6.80223 23.27 4.73896 21.7144 3.21769C20.1589 1.69643 18.0491 0.841797 15.8491 0.841797C13.6492 0.841797 11.5394 1.69643 9.98384 3.21769C8.42826 4.73896 7.55435 6.80223 7.55435 8.95362C7.55435 11.105 8.42826 13.1683 9.98384 14.6895C11.5394 16.2108 13.6492 17.0654 15.8491 17.0654Z" stroke="currentColor" stroke-width="1.5" stroke-linecap="round"/>
<path d="M32.9226 30.8887V37.1433H37.5084" stroke="currentColor" stroke-width="1.5" stroke-linecap="round" stroke-linejoin="round"/>
<path d="M22.3738 37.8296V31.3913C22.3738 30.3049 22.9328 29.319 23.871 28.7758L31.8564 24.1281C32.7747 23.5849 33.9126 23.5849 34.8509 24.1281L42.8362 28.7758C43.7545 29.319 44.3334 30.3049 44.3334 31.3913V40.6866C44.3334 41.7529 43.7545 42.7589 42.8362 43.3022L34.8509 47.9498C33.9126 48.4729 32.7747 48.4729 31.8564 47.9498L23.871 43.3022C23.3121 42.9802 22.3738 42.0204 22.3738 41.0222" stroke="currentColor" stroke-width="1.5" stroke-linecap="round" stroke-linejoin="round"/>
</svg>
