<svg width="31" height="35" viewBox="0 0 31 35" fill="none" xmlns="http://www.w3.org/2000/svg">
<path fill-rule="evenodd" clip-rule="evenodd" d="M17.3566 2.14845C16.3063 1.53187 15.0418 1.53541 14.0247 2.14579L14.0209 2.14805L3.47543 8.37442L3.47421 8.37514C2.42874 8.98918 1.80422 10.1018 1.80422 11.3385V24.2409C1.80422 24.7209 2.032 25.246 2.39245 25.7324C2.75053 26.2156 3.18412 26.5851 3.47299 26.7539L3.47543 26.7553L14.0159 32.9788C14.0167 32.9793 14.0175 32.9798 14.0183 32.9802C15.0381 33.5684 16.308 33.5721 17.361 32.9787L27.8975 26.7576C27.8981 26.7572 27.8987 26.7569 27.8992 26.7566C28.9254 26.1399 29.5725 24.9962 29.5725 23.7913V11.3385C29.5725 10.109 28.9275 8.99113 27.8994 8.3733C27.8988 8.37293 27.8982 8.37255 27.8975 8.37218L17.3571 2.14875C17.3569 2.14865 17.3567 2.14855 17.3566 2.14845ZM13.3995 1.06917C14.8073 0.225324 16.547 0.229154 17.9742 1.0674L17.9754 1.06812L28.5247 7.29673C29.9209 8.13467 30.8042 9.65769 30.8042 11.3385V23.7913C30.8042 25.4428 29.9229 26.9939 28.5247 27.833L28.5209 27.8353L17.9754 34.0616L17.9655 34.0674C16.5421 34.8725 14.81 34.8757 13.4063 34.0645L13.4013 34.0617L2.85829 27.8367C2.85777 27.8364 2.85725 27.8361 2.85673 27.8358C2.4077 27.5731 1.85342 27.0844 1.40792 26.4833C0.964277 25.8846 0.57251 25.0982 0.57251 24.2409V11.3385C0.57251 9.66439 1.42406 8.13579 2.85633 7.29422C2.85657 7.29408 2.85682 7.29393 2.85706 7.29379L13.3995 1.06917Z" fill="currentColor"/>
<path d="M10.886 23.9035C10.7691 23.9035 10.6594 23.859 10.5571 23.77C10.4694 23.6811 10.4255 23.5698 10.4255 23.4363C10.4255 23.3029 10.4767 23.1694 10.579 23.0359L14.3947 17.9861L10.8203 13.2033C10.7179 13.0846 10.6668 12.9512 10.6668 12.8029C10.6668 12.6694 10.7106 12.5582 10.7983 12.4692C10.886 12.3802 10.9957 12.3357 11.1273 12.3357H12.2456C12.4649 12.3357 12.655 12.4543 12.8158 12.6916L15.7323 16.5402L18.6489 12.7139C18.7366 12.5952 18.817 12.5062 18.8901 12.4469C18.9778 12.3728 19.0875 12.3357 19.219 12.3357H20.2935C20.4251 12.3357 20.5348 12.3802 20.6225 12.4692C20.7102 12.5582 20.754 12.6694 20.754 12.8029C20.754 12.9512 20.7029 13.0846 20.6005 13.2033L16.9823 18.0306L20.7979 23.0359C20.9002 23.1694 20.9514 23.3029 20.9514 23.4363C20.9514 23.5698 20.9075 23.6811 20.8198 23.77C20.7321 23.859 20.6225 23.9035 20.4909 23.9035H19.3287C19.1094 23.9035 18.9193 23.7923 18.7585 23.5698L15.6885 19.4988L12.5746 23.5698C12.4869 23.6736 12.3991 23.7552 12.3114 23.8145C12.2383 23.8738 12.136 23.9035 12.0044 23.9035H10.886Z" fill="currentColor"/>
</svg>
