<svg width="216" height="48" viewBox="0 0 216 48" fill="none" xmlns="http://www.w3.org/2000/svg">
<path d="M109.967 26.5374L107.397 30.8851C107.264 31.1107 107.3 31.4029 107.479 31.5926L114.083 38.3705C114.298 38.591 114.643 38.591 114.853 38.3705L121.467 31.5824C121.647 31.3978 121.683 31.1158 121.559 30.8902L119.155 26.5528C119.057 26.3733 118.877 26.2656 118.677 26.2656H110.429C110.239 26.2656 110.059 26.3682 109.961 26.5374H109.967Z" fill="#009393"/>
<path d="M11.5814 34.5936V47.4957H0.200195V9.08766H10.0604L11.0886 13.2099C12.3158 10.3149 14.7181 8.59961 18.5466 8.59961C25.1706 8.59961 28.9944 13.3568 28.9944 23.416V24.3969C28.9944 27.6852 28.5537 30.3339 27.6203 32.395C25.8529 36.4651 22.6167 38.2799 18.6935 38.2799C15.064 38.2799 12.9034 36.9531 11.5814 34.603V34.5936ZM17.8122 24.2405V23.454C17.8122 19.3317 16.4902 18.2561 14.6234 18.2561C12.7565 18.2561 11.4819 19.3839 11.4819 23.454V24.2405C11.4819 27.4767 12.7565 28.8034 14.6234 28.8034C16.4902 28.8034 17.8122 27.5762 17.8122 24.2405Z" fill="#009393"/>
<path d="M31.5911 0.00976562H43.2187V37.7829H31.5911V0.00976562Z" fill="#009393"/>
<path d="M55.4322 38.2714C49.4478 38.2714 46.5054 34.642 46.5054 27.8711V9.08398H57.9861V24.3411C57.9861 26.8429 58.1804 28.4112 60.1467 28.4112C62.2078 28.4112 62.4021 26.7434 62.4021 24.0473V9.08398H74.0771V37.7834H64.3637L63.2834 33.5664C61.9567 36.5088 59.3602 38.2762 55.4322 38.2762V38.2714Z" fill="#009393"/>
<path d="M75.5904 28.0692H87.019C87.6587 29.5902 88.8812 30.3767 90.6485 30.3767C92.1695 30.3767 92.9039 29.9361 92.9039 29.0026C92.9039 27.6807 90.4021 27.5812 87.3128 27.2353C84.9579 26.9889 82.3566 26.5482 80.2007 25.321C78.0448 24.146 76.6186 22.0327 76.6186 18.4032C76.6186 12.4662 81.5227 8.54297 89.862 8.54297C92.9039 8.54297 95.3062 8.98365 97.2678 9.81758C101.144 11.4381 103.105 14.5274 103.745 18.4506H92.8044C92.4585 17.2755 91.3829 16.29 89.663 16.29C88.2415 16.29 87.5071 16.977 87.5071 17.7636C87.5071 18.697 88.6821 18.8913 93.0034 19.4315C95.3583 19.6778 98.007 20.218 100.262 21.4452C102.423 22.6724 103.939 24.7335 103.939 28.2161C103.939 30.1777 103.399 31.9925 102.371 33.5608C100.262 36.6501 96.1922 38.5644 89.862 38.5644C81.5227 38.5644 76.5665 34.788 75.5857 28.0645L75.5904 28.0692Z" fill="#009393"/>
<path d="M134.877 34.2699V26.5469H137.486C138.005 26.5469 138.434 26.6399 138.772 26.8259C139.109 27.0095 139.361 27.2571 139.526 27.5688C139.691 27.878 139.774 28.2212 139.774 28.5983C139.774 28.9302 139.716 29.2042 139.602 29.4204C139.491 29.6366 139.342 29.8075 139.158 29.9332C138.976 30.0589 138.778 30.152 138.564 30.2123V30.2877C138.792 30.3028 139.022 30.3858 139.253 30.5366C139.483 30.6875 139.676 30.9037 139.832 31.1852C139.987 31.4668 140.065 31.8112 140.065 32.2185C140.065 32.6056 139.98 32.9538 139.81 33.2631C139.64 33.5723 139.372 33.8174 139.005 33.9984C138.638 34.1794 138.161 34.2699 137.573 34.2699H134.877ZM135.78 33.4403H137.573C138.163 33.4403 138.582 33.3221 138.83 33.0858C139.08 32.847 139.205 32.5579 139.205 32.2185C139.205 31.957 139.141 31.7157 139.012 31.4944C138.883 31.2707 138.7 31.0922 138.462 30.959C138.224 30.8232 137.942 30.7553 137.617 30.7553H135.78V33.4403ZM135.78 29.9408H137.456C137.728 29.9408 137.974 29.8855 138.192 29.7749C138.413 29.6642 138.588 29.5084 138.717 29.3073C138.848 29.1061 138.914 28.8698 138.914 28.5983C138.914 28.2589 138.8 27.9711 138.571 27.7347C138.343 27.4959 137.981 27.3765 137.486 27.3765H135.78V29.9408Z" fill="currentColor"/>
<path d="M141.987 36.442C141.841 36.442 141.711 36.4295 141.597 36.4043C141.483 36.3817 141.404 36.3591 141.36 36.3364L141.579 35.5521C141.788 35.6074 141.972 35.6275 142.133 35.6124C142.293 35.5973 142.435 35.5231 142.559 35.3899C142.685 35.2592 142.8 35.0467 142.905 34.7526L143.065 34.3001L140.996 28.4776H141.929L143.473 33.0934H143.532L145.076 28.4776H146.009L143.634 35.1146C143.527 35.4138 143.394 35.6614 143.236 35.8575C143.079 36.0561 142.895 36.2032 142.686 36.2987C142.48 36.3943 142.247 36.442 141.987 36.442Z" fill="currentColor"/>
<path d="M163.074 27.0979L163.103 26.9487C163.284 25.999 163.813 25.5562 164.769 25.5562C165.724 25.5562 166.234 26.0004 166.373 26.9536L166.394 27.0979H163.074ZM164.727 22.209C160.897 22.209 158.517 24.5367 158.517 28.2834V28.7199C158.517 32.5985 160.642 34.6486 164.664 34.6486C168.111 34.6486 170.14 33.2812 170.86 30.4688H165.998C165.783 30.9444 165.386 31.1759 164.789 31.1759C163.796 31.1759 163.26 30.6794 163.101 29.6125L163.08 29.4682H170.895V28.1377C170.895 24.37 168.647 22.209 164.727 22.209Z" fill="currentColor"/>
<path d="M188.964 22.2088C187.495 22.2088 186.409 22.8253 185.825 23.9912L185.586 24.4682V18.5723H180.92V34.3361H185.586V28.1159C185.586 27.1152 185.674 26.1383 186.713 26.1383C187.752 26.1383 187.798 27.0148 187.798 27.9911V34.3361H192.423V26.4932C192.423 23.57 191.324 22.2081 188.964 22.2081" fill="currentColor"/>
<path d="M198.101 27.0979L198.13 26.9487C198.311 25.999 198.84 25.5562 199.796 25.5562C200.752 25.5562 201.261 26.0004 201.401 26.9536L201.422 27.0979H198.101ZM199.754 22.209C195.924 22.209 193.544 24.5367 193.544 28.2834V28.7199C193.544 32.5985 195.67 34.6486 199.691 34.6486C203.139 34.6486 205.167 33.2812 205.887 30.4688H201.025C200.81 30.9444 200.414 31.1759 199.816 31.1759C198.824 31.1759 198.288 30.6794 198.129 29.6125L198.107 29.4682H205.922V28.1377C205.922 24.37 203.674 22.209 199.754 22.209Z" fill="currentColor"/>
<path d="M215.583 22.209H215.147C212.86 22.209 211.906 22.8568 211.624 24.6001L211.535 25.1517L210.738 22.4175H207.082V34.3369H211.915V29.3029C211.915 27.6642 212.437 27.1384 214.063 27.1384H215.563L215.583 22.2097L215.583 22.209Z" fill="currentColor"/>
<path d="M155.101 19.6074H151.414V19.6618C151.391 20.3075 151.335 20.8208 151.243 21.2266C151.107 21.8026 150.826 22.2329 150.432 22.4713C150.126 22.645 149.777 22.7391 149.387 22.7531V26.4754H150.726V29.1141C150.726 33.1154 151.846 34.335 155.519 34.335H157.686V30.0924H157.124C155.459 30.0924 155.101 29.9188 155.101 28.073V26.4698H157.686V22.4149H155.101V19.6074Z" fill="currentColor"/>
<path d="M177.056 19.6074H173.369V19.6667C173.346 20.3103 173.29 20.8222 173.199 21.2266C173.062 21.8026 172.782 22.2329 172.387 22.4713C172.082 22.645 171.731 22.7391 171.342 22.7531V26.4754H172.681V29.1141C172.681 33.1154 173.801 34.335 177.474 34.335H179.641V30.0924H179.079C177.414 30.0924 177.056 29.9188 177.056 28.073V26.4698H179.641V22.4149H177.056V19.6074Z" fill="currentColor"/>
</svg>
