<svg width="59" height="54" viewBox="0 0 59 54" fill="none" xmlns="http://www.w3.org/2000/svg">
<path d="M27.3876 23.8722L22.1129 20.8066L14.5239 25.2112V34.026L22.1129 38.4306L22.9312 38.1058" stroke="currentColor" stroke-width="1.5" stroke-linecap="round" stroke-linejoin="round"/>
<path d="M31.3117 15.9585L26.7435 13.2422V8.20433L24.9523 7.16625C23.1729 6.1399 21.0164 6.1399 19.2783 7.16625L17.3162 8.30403V13.5296L10.3813 17.5588L5.86804 14.9372L4.14757 15.9342C2.36818 16.9606 1.30762 18.8197 1.30762 20.8666V23.0424L5.69717 25.5936V33.6461L1.30762 36.1973V39.0359C1.30762 40.9185 3.08701 42.7308 4.14757 43.3349L5.93286 44.3671L10.3872 41.7807L17.3221 45.8098V50.965L19.2842 52.1028C21.0223 53.0881 23.1788 53.0881 24.9582 52.1028L26.7494 51.0647V45.9623L33.6843 41.9331L38.0915 44.4902L40.0889 43.3349C41.2391 42.6557 42.1106 41.5965 42.5686 40.3747" stroke="currentColor" stroke-width="1.5" stroke-linecap="round" stroke-linejoin="round"/>
<path d="M47.6608 16.0576C46.0331 17.6493 43.8221 18.5464 41.5133 18.5464C39.2044 18.5464 36.9934 17.6493 35.3658 16.0576C33.7387 14.4664 32.8278 12.312 32.8278 10.0691C32.8278 7.82626 33.7387 5.67179 35.3658 4.08063C36.9934 2.48891 39.2044 1.5918 41.5133 1.5918C43.8221 1.5918 46.0331 2.48891 47.6608 4.08063C49.2878 5.67179 50.1987 7.82626 50.1987 10.0691C50.1987 12.312 49.2878 14.4664 47.6608 16.0576ZM25.7512 35.6101C25.7512 28.9392 31.282 23.5067 38.1445 23.5067H44.882C51.7445 23.5067 57.2753 28.9392 57.2753 35.6101C57.2753 36.3624 56.6466 37.0011 55.836 37.0011H27.1905C26.38 37.0011 25.7512 36.3624 25.7512 35.6101Z" stroke="currentColor" stroke-width="1.5"/>
</svg>
