<svg width="47" height="42" viewBox="0 0 47 42" fill="none" xmlns="http://www.w3.org/2000/svg">
<path fill-rule="evenodd" clip-rule="evenodd" d="M2.39582 6.25977V36.6016C2.39582 38.429 3.87725 39.9104 5.70468 39.9104H40.5102C42.3376 39.9104 43.819 38.429 43.819 36.6016V29.5116H45.3462V36.6016C45.3462 39.2724 43.181 41.4376 40.5102 41.4376H5.70468C3.03382 41.4376 0.868652 39.2724 0.868652 36.6016V6.25977H2.39582Z" fill="currentColor"/>
<path fill-rule="evenodd" clip-rule="evenodd" d="M6.16764 1.78303C4.08452 1.78303 2.39582 3.47173 2.39582 5.55485C2.39582 7.63797 4.08452 9.32667 6.16764 9.32667H40.3458V7.12811C40.3458 4.1761 37.9527 1.78303 35.0007 1.78303H6.16764ZM41.8729 9.39361V7.12811C41.8729 3.33267 38.7961 0.255859 35.0007 0.255859H6.16764C3.24109 0.255859 0.868652 2.6283 0.868652 5.55485C0.868652 8.4814 3.24109 10.8538 6.16764 10.8538H41.1094C42.6633 10.8538 43.923 12.1135 43.923 13.6675V20.4386H45.4501V13.6675C45.4501 11.5306 43.9061 9.75443 41.8729 9.39361Z" fill="currentColor"/>
<path fill-rule="evenodd" clip-rule="evenodd" d="M45.2036 21.7127H36.7019C34.8288 21.7127 33.3104 23.2311 33.3104 25.1042C33.3104 26.9773 34.8288 28.4957 36.7018 28.4957H45.2036V21.7127ZM36.7019 20.1855C33.9854 20.1855 31.7832 22.3877 31.7832 25.1042C31.7832 27.8207 33.9854 30.0228 36.7018 30.0228H45.7127C46.2749 30.0228 46.7308 29.567 46.7308 29.0047V21.2037C46.7308 20.6414 46.2749 20.1855 45.7127 20.1855H36.7019Z" fill="currentColor"/>
<path d="M37.6592 25.1035C37.6592 25.7033 37.173 26.1894 36.5732 26.1894C35.9735 26.1894 35.4873 25.7033 35.4873 25.1035C35.4873 24.5038 35.9735 24.0176 36.5732 24.0176C37.173 24.0176 37.6592 24.5038 37.6592 25.1035Z" fill="currentColor"/>
</svg>
