<svg width="77" height="45" viewBox="0 0 77 45" fill="none" xmlns="http://www.w3.org/2000/svg">
<path fill-rule="evenodd" clip-rule="evenodd" d="M53.097 37.2202C52.604 36.7919 52.5515 36.045 52.9799 35.552L64.4249 22.3786L52.9799 9.20517C52.5515 8.71214 52.604 7.96523 53.097 7.53689C53.59 7.10855 54.3369 7.16099 54.7653 7.65402L66.8841 21.603C67.2706 22.0478 67.2706 22.7093 66.8841 23.1541L54.7653 37.1031C54.3369 37.5961 53.59 37.6486 53.097 37.2202Z" fill="currentColor"/>
<path fill-rule="evenodd" clip-rule="evenodd" d="M23.6315 7.53756C24.1246 7.9659 24.177 8.71281 23.7487 9.20584L12.3036 22.3792L23.7487 35.5526C24.177 36.0457 24.1246 36.7926 23.6315 37.2209C23.1385 37.6493 22.3916 37.5968 21.9633 37.1038L9.84442 23.1548C9.45795 22.71 9.45795 22.0485 9.84442 21.6037L21.9633 7.65469C22.3916 7.16166 23.1385 7.10923 23.6315 7.53756Z" fill="currentColor"/>
<path fill-rule="evenodd" clip-rule="evenodd" d="M44.8319 0.613584C45.4573 0.801808 45.8117 1.46138 45.6235 2.08677L33.2041 43.3511C33.0158 43.9765 32.3563 44.3309 31.7309 44.1427C31.1055 43.9544 30.7511 43.2949 30.9393 42.6695L43.3587 1.40515C43.5469 0.779753 44.2065 0.425354 44.8319 0.613584Z" fill="currentColor"/>
</svg>
