<svg width="262" height="245" viewBox="0 0 262 245" fill="none" xmlns="http://www.w3.org/2000/svg">
<path d="M174.828 100.402C174.268 100.402 173.779 100.191 173.359 99.7706C172.939 99.3499 172.729 98.8591 172.729 98.2981C172.729 98.0177 172.764 97.7372 172.834 97.4567C172.974 97.1061 173.219 96.6854 173.569 96.1946L192.04 72.424L174.513 49.9157C174.163 49.4248 173.918 49.0392 173.779 48.7587C173.709 48.4081 173.674 48.0926 173.674 47.8121C173.674 47.2511 173.883 46.7603 174.303 46.3396C174.723 45.9189 175.213 45.7085 175.773 45.7085H177.977C178.676 45.7085 179.201 45.8838 179.551 46.2344C179.971 46.585 180.32 46.9356 180.6 47.2862L196.343 67.5858L212.086 47.3914C212.436 47.0408 212.785 46.6902 213.135 46.3396C213.485 45.9189 214.01 45.7085 214.71 45.7085H216.809C217.368 45.7085 217.858 45.9189 218.278 46.3396C218.698 46.7603 218.908 47.2511 218.908 47.8121C218.908 48.0926 218.838 48.4081 218.698 48.7587C218.628 49.0392 218.418 49.4248 218.068 49.9157L200.331 72.7396L218.803 96.1946C219.153 96.6854 219.362 97.1061 219.432 97.4567C219.572 97.7372 219.642 98.0177 219.642 98.2981C219.642 98.8591 219.432 99.3499 219.013 99.7706C218.593 100.191 218.103 100.402 217.543 100.402H215.339C214.64 100.402 214.08 100.226 213.66 99.8758C213.31 99.5252 212.995 99.1746 212.716 98.824L196.133 77.5778L179.551 98.824C179.271 99.1746 178.921 99.5252 178.501 99.8758C178.151 100.226 177.627 100.402 176.927 100.402H174.828Z" fill="#B3B3B3"/>
<path fill-rule="evenodd" clip-rule="evenodd" d="M39.4404 117.989C40.0993 114.017 43.528 111.105 47.5459 111.105H107.393C109.602 111.105 111.718 111.996 113.264 113.578L133.126 133.906H145.83C147.068 133.906 148.071 134.911 148.071 136.151C148.071 137.392 147.068 138.397 145.83 138.397H131.242L110.062 116.721C109.359 116.002 108.397 115.596 107.393 115.596H47.5459C45.7196 115.596 44.1611 116.92 43.8616 118.726L41.0825 135.48C40.8796 136.703 39.7253 137.53 38.5044 137.327C37.2835 137.123 36.4583 135.966 36.6613 134.743L39.4404 117.989ZM225.812 141.347C226.807 140.609 228.21 140.82 228.947 141.816C232.298 146.355 233.628 152.367 232.032 158.632C230.544 164.471 225.42 182.744 220.68 199.511C218.308 207.905 216.028 215.936 214.341 221.868C213.497 224.834 212.802 227.276 212.318 228.976L211.56 231.634C211.56 231.634 211.56 231.635 209.405 231.017C207.251 230.4 207.251 230.4 207.251 230.399L207.251 230.397L208.008 227.743C208.492 226.043 209.187 223.602 210.03 220.637C211.717 214.706 213.996 206.678 216.368 198.287C221.117 181.486 226.22 163.288 227.69 157.521C228.956 152.551 227.886 147.931 225.344 144.489C224.608 143.492 224.817 142.085 225.812 141.347ZM208.789 233.177C207.599 232.836 206.911 231.592 207.251 230.399L209.405 231.017L211.56 231.634C211.22 232.826 209.979 233.518 208.789 233.177Z" fill="#B3B3B3"/>
<path fill-rule="evenodd" clip-rule="evenodd" d="M203.873 7.15984C199.202 4.45029 193.569 4.46301 189.036 7.15031L189.023 7.15841L143.417 33.7596L143.412 33.7622C138.758 36.4626 135.979 41.3573 135.979 46.789V101.913C135.979 104.091 137.021 106.423 138.608 108.539C140.187 110.644 142.104 112.263 143.408 113.016L143.417 113.021L147.554 115.434C148.236 115.832 148.659 116.56 148.668 117.352L148.944 143.99L178.632 134.422C179.237 134.227 179.896 134.299 180.446 134.619L189.005 139.612C189.008 139.613 189.01 139.615 189.013 139.617C193.556 142.206 199.208 142.219 203.889 139.611L249.462 113.029C249.464 113.028 249.466 113.027 249.468 113.026C254.034 110.316 256.914 105.291 256.914 99.9915V46.789C256.914 41.3828 254.042 36.4692 249.469 33.7552C249.467 33.754 249.465 33.7528 249.462 33.7515L203.875 7.16094C203.874 7.16058 203.874 7.16021 203.873 7.15984ZM186.762 3.28019C192.716 -0.246351 200.077 -0.232588 206.12 3.27382L206.125 3.27639L251.744 29.8856C257.657 33.3909 261.395 39.7607 261.395 46.789V99.9915C261.395 106.896 257.664 113.385 251.744 116.895L251.731 116.903L206.125 143.504L206.089 143.525C200.059 146.894 192.726 146.905 186.786 143.514L186.768 143.504L179.054 139.004L147.421 149.199C146.743 149.418 146.002 149.3 145.424 148.883C144.847 148.466 144.501 147.798 144.494 147.085L144.199 118.674L141.171 116.908C141.17 116.907 141.169 116.907 141.168 116.906C139.28 115.816 136.923 113.768 135.026 111.238C133.136 108.719 131.498 105.447 131.498 101.913V46.789C131.498 39.7847 135.103 33.3948 141.164 29.8765C141.165 29.876 141.166 29.8755 141.167 29.8751L186.754 3.28445C186.757 3.28303 186.759 3.28161 186.762 3.28019Z" fill="#B3B3B3"/>
<path fill-rule="evenodd" clip-rule="evenodd" d="M8.61611 138.554C6.19885 138.554 4.41834 140.82 4.98546 143.175L27.6492 237.283C28.057 238.976 29.5765 240.164 31.3146 240.148L204.664 238.531C207.026 238.509 208.775 236.322 208.281 234.006L194.689 170.238C193.585 165.057 189.018 161.355 183.732 161.355H89.7864L68.6064 139.678C67.9038 138.959 66.942 138.554 65.9378 138.554H8.61611ZM0.62867 144.229C-0.618994 139.048 3.29815 134.062 8.61611 134.062H65.9378C68.1469 134.062 70.263 134.954 71.8086 136.536L91.6705 156.863H183.732C191.132 156.863 197.526 162.047 199.072 169.3L212.664 233.068C213.75 238.162 209.903 242.974 204.705 243.022L31.3563 244.639C27.5325 244.675 24.1896 242.062 23.2924 238.337L0.62867 144.229Z" fill="#B3B3B3"/>
<path fill-rule="evenodd" clip-rule="evenodd" d="M37.2637 182.961C37.2637 181.721 38.267 180.715 39.5046 180.715H70.3291C71.5667 180.715 72.57 181.721 72.57 182.961C72.57 184.201 71.5667 185.207 70.3291 185.207H39.5046C38.267 185.207 37.2637 184.201 37.2637 182.961Z" fill="#B3B3B3"/>
<path fill-rule="evenodd" clip-rule="evenodd" d="M40.6553 198.406C40.6553 197.166 41.6586 196.16 42.8962 196.16H73.7207C74.9583 196.16 75.9616 197.166 75.9616 198.406C75.9616 199.647 74.9583 200.652 73.7207 200.652H42.8962C41.6586 200.652 40.6553 199.647 40.6553 198.406Z" fill="#B3B3B3"/>
<path fill-rule="evenodd" clip-rule="evenodd" d="M44.3979 213.852C44.3979 212.611 45.4013 211.606 46.6389 211.606H77.4634C78.701 211.606 79.7043 212.611 79.7043 213.852C79.7043 215.092 78.701 216.098 77.4634 216.098H46.6389C45.4013 216.098 44.3979 215.092 44.3979 213.852Z" fill="#B3B3B3"/>
</svg>
