<svg width="32" height="33" viewBox="0 0 32 33" fill="none" xmlns="http://www.w3.org/2000/svg">
<path fill-rule="evenodd" clip-rule="evenodd" d="M16.1999 13.0309C16.9653 13.0309 17.6937 12.7427 18.2265 12.2383C18.7582 11.7348 19.0516 11.0578 19.0516 10.3579C19.0516 9.65794 18.7582 8.98096 18.2265 8.47745C17.6937 7.97302 16.9653 7.68487 16.1999 7.68487C15.4345 7.68487 14.706 7.97302 14.1733 8.47745C13.6415 8.98096 13.3481 9.65794 13.3481 10.3579C13.3481 11.0578 13.6415 11.7348 14.1733 12.2383C14.706 12.7427 15.4345 13.0309 16.1999 13.0309ZM10.2671 20.8443H22.1327C21.9559 18.694 20.0517 16.9633 17.673 16.9633H14.7268C12.3481 16.9633 10.4439 18.694 10.2671 20.8443ZM19.1173 13.1203C18.3436 13.853 17.2941 14.2646 16.1999 14.2646C15.1056 14.2646 14.0562 13.853 13.2824 13.1203C12.5086 12.3877 12.0739 11.394 12.0739 10.3579C12.0739 9.32175 12.5086 8.32807 13.2824 7.59542C14.0562 6.86277 15.1056 6.45117 16.1999 6.45117C17.2941 6.45117 18.3436 6.86277 19.1173 7.59542C19.8911 8.32807 20.3258 9.32175 20.3258 10.3579C20.3258 11.394 19.8911 12.3877 19.1173 13.1203ZM8.97949 21.1715C8.97949 18.1652 11.5518 15.7296 14.7268 15.7296H17.673C20.848 15.7296 23.4203 18.1652 23.4203 21.1715C23.4203 21.6721 22.9915 22.078 22.4629 22.078H9.93684C9.4082 22.078 8.97949 21.6721 8.97949 21.1715Z" fill="currentColor"/>
<path fill-rule="evenodd" clip-rule="evenodd" d="M2.45824 2.57536C2.05518 3.04215 1.83766 3.74501 1.83766 4.65269V22.5108C1.83766 22.9847 2.07329 23.5032 2.44617 23.9834C2.8166 24.4605 3.26514 24.8253 3.56397 24.992L3.5665 24.9934L14.4705 31.1381C14.4713 31.1385 14.4721 31.139 14.4729 31.1394C15.5279 31.7202 16.8416 31.7238 17.9309 31.1379L28.8307 24.9956C28.8314 24.9952 28.832 24.9949 28.8327 24.9945C29.8942 24.3856 30.5635 23.2564 30.5635 22.0668V4.65269C30.5635 3.76084 30.2616 3.06486 29.7593 2.59154C29.2558 2.11718 28.4906 1.80987 27.4562 1.80987H4.52021C3.47738 1.80987 2.84467 2.12782 2.45824 2.57536ZM1.48068 1.78406C2.16011 0.997196 3.18722 0.576172 4.52021 0.576172H27.4562C28.7557 0.576172 29.8627 0.967513 30.6479 1.70739C31.4343 2.44832 31.8377 3.48218 31.8377 4.65269V22.0668C31.8377 23.6975 30.926 25.2289 29.4795 26.0574L29.4756 26.0596L18.5665 32.2072L18.5563 32.2128C17.0837 33.0077 15.2919 33.0109 13.8398 32.2101L13.8346 32.2072L2.92808 26.061C2.92755 26.0607 2.92702 26.0604 2.92649 26.0602C2.46196 25.8008 1.88856 25.3183 1.42769 24.7247C0.968753 24.1337 0.563477 23.3572 0.563477 22.5108V4.65269C0.563477 3.57865 0.817868 2.55168 1.48068 1.78406Z" fill="currentColor"/>
</svg>
