<svg width="48" height="52" viewBox="0 0 48 52" fill="none" xmlns="http://www.w3.org/2000/svg">
<path d="M27.812 23.5485C26.8037 24.5345 25.4326 25.0914 23.9996 25.0914C22.5666 25.0914 21.1955 24.5345 20.1872 23.5485C19.1794 22.5629 18.6165 21.2299 18.6165 19.8436C18.6165 18.4572 19.1794 17.1242 20.1872 16.1386C21.1955 15.1526 22.5666 14.5957 23.9996 14.5957C25.4326 14.5957 26.8037 15.1526 27.812 16.1386C28.8197 17.1242 29.3827 18.4572 29.3827 19.8436C29.3827 21.2299 28.8197 22.5629 27.812 23.5485ZM14.0166 36.4454C14.0166 32.2598 17.4886 28.8406 21.8099 28.8406H26.1893C30.5106 28.8406 33.9826 32.2598 33.9826 36.4454C33.9826 36.784 33.697 37.0871 33.3095 37.0871H14.6897C14.3022 37.0871 14.0166 36.784 14.0166 36.4454Z" stroke="currentColor" stroke-width="1.5"/>
<path d="M1.70264 29.4935V16.4189C1.70264 14.2126 2.83777 12.2105 4.74318 11.1074L20.9594 1.66917C22.8243 0.566005 25.1351 0.566005 27.0405 1.66917L43.2567 11.1074C45.1216 12.2105 46.2972 14.2126 46.2972 16.4189V35.2953C46.2972 37.4608 45.1216 39.5037 43.2567 40.6069L27.0405 50.0451C25.1351 51.1074 22.8243 51.1074 20.9594 50.0451L4.74318 40.6069C3.60804 39.9531 1.70264 38.004 1.70264 35.9769" stroke="currentColor" stroke-width="1.5" stroke-linecap="round" stroke-linejoin="round"/>
</svg>
