<svg width="31" height="31" viewBox="0 0 31 31" fill="none" xmlns="http://www.w3.org/2000/svg">
<path d="M30.6589 19.741C30.2169 19.269 29.3215 19.0365 28.3178 19.5814C28.1171 19.6903 27.8684 19.8185 27.5831 19.9603V3.58142C27.5831 3.34363 27.3781 3.15087 27.1252 3.15087H16.5551L16.7622 2.86037C16.9498 2.59717 16.9131 2.24362 16.6749 2.01967L15.7271 1.12842C15.4888 0.904351 15.1128 0.869722 14.833 1.04631L14.4242 1.30403L13.6193 0.990462L13.524 0.536472C13.4588 0.225611 13.167 0 12.8301 0H11.4896C11.1527 0 10.8609 0.225611 10.7957 0.536472L10.7005 0.990462L9.89555 1.30403L9.48681 1.04631C9.20698 0.869845 8.83094 0.904351 8.59266 1.12842L7.64494 2.01961C7.40659 2.24362 7.36989 2.59723 7.55755 2.86043L7.83168 3.24485L7.49823 4.00177L7.01537 4.09132C6.68486 4.15271 6.44493 4.4271 6.44493 4.74386V6.00434C6.44493 6.32117 6.68486 6.59562 7.01544 6.65694L7.49823 6.74644L7.83168 7.50335L7.55762 7.88772C7.36996 8.15085 7.40665 8.50446 7.64487 8.72853L8.59266 9.61978C8.83101 9.84385 9.20705 9.87842 9.48674 9.70183L9.89555 9.44411L10.7005 9.75768L10.7957 10.2117C10.8609 10.5225 11.1527 10.7481 11.4896 10.7481H11.702V18.4871C10.8647 18.2518 10.0367 18.1557 9.12417 18.3634C7.58293 18.7142 5.94265 19.9149 3.82672 22.2453C3.27859 21.9997 2.60193 22.0884 2.14864 22.5145L0.13409 24.4089C0.0482723 24.4897 0 24.5992 0 24.7134C0 24.8276 0.0482723 24.9371 0.13409 25.0179L6.3616 30.8739C6.45102 30.958 6.56817 31 6.68538 31C6.80259 31 6.91974 30.9579 7.00916 30.8739L9.02371 28.9795C9.44625 28.5821 9.55706 28.002 9.35854 27.5076C10.6421 27.0035 12.0736 26.9601 13.9023 27.0629C14.3138 27.086 14.7459 27.1188 15.2033 27.1534C16.2894 27.2357 17.4125 27.3207 18.4978 27.2982C20.7785 27.2508 22.1509 26.6486 23.9844 25.7354C25.8527 24.8047 29.8373 22.5821 30.582 21.6616C31.11 21.0088 31.1402 20.255 30.6589 19.7411V19.741ZM11.5515 9.36483C11.5218 9.22348 11.419 9.10545 11.2775 9.05034L10.0195 8.56024C9.87789 8.50513 9.71646 8.52014 9.58924 8.60041L9.11907 8.89694L8.41357 8.23351L8.72884 7.7914C8.8142 7.67176 8.83022 7.5199 8.77155 7.3868L8.25037 6.20381C8.19176 6.07071 8.06624 5.97408 7.91593 5.94622L7.36067 5.84332V4.90501L7.91593 4.80205C8.06618 4.77418 8.1917 4.67749 8.25037 4.54445L8.77155 3.36147C8.83016 3.22837 8.81413 3.07657 8.72884 2.95687L8.41357 2.51475L9.11914 1.85127L9.58924 2.14773C9.71646 2.228 9.87795 2.24307 10.0195 2.1879L11.2775 1.6978C11.4191 1.64269 11.5218 1.52466 11.5515 1.38331L11.661 0.861173H12.6588L12.7683 1.38331C12.7979 1.52466 12.9007 1.64269 13.0422 1.6978L14.3002 2.1879C14.4418 2.24301 14.6033 2.22794 14.7305 2.14773L15.2007 1.85127L15.9062 2.51475L15.591 2.95687C15.5056 3.0765 15.4896 3.22837 15.5482 3.36147L16.0694 4.54445C16.128 4.67756 16.2536 4.77418 16.4039 4.80205L16.9591 4.90501V5.84332L16.4039 5.94622C16.2536 5.97408 16.1281 6.07077 16.0694 6.20381L15.5482 7.3868C15.4896 7.5199 15.5057 7.67176 15.591 7.7914L15.9062 8.23351L15.2007 8.897L14.7305 8.60047C14.6033 8.52026 14.4418 8.50519 14.3002 8.56031L13.0422 9.0504C12.9007 9.10551 12.7979 9.22355 12.7683 9.36489L12.6588 9.88703H11.661L11.5515 9.36483ZM12.6177 10.7481H12.8301C13.167 10.7481 13.4589 10.5225 13.524 10.2117L13.6193 9.75768L14.4242 9.44405L14.8329 9.70177C15.1127 9.8783 15.4888 9.84379 15.7271 9.61978L16.6749 8.72853C16.9131 8.50452 16.9498 8.15091 16.7622 7.88772L16.488 7.50335L16.8216 6.74644L17.3044 6.65694C17.6349 6.59568 17.8749 6.32123 17.8749 6.00434V4.74386C17.8749 4.4271 17.6349 4.15271 17.3043 4.09132L16.8766 4.01204H26.6673V20.4024C26.1838 20.6299 25.6488 20.8737 25.0918 21.1188H21.297C20.9424 20.6911 20.4044 20.4529 19.816 20.4701C16.9403 20.4688 15.0793 19.7428 13.4371 19.1022C13.1578 18.9933 12.8857 18.8871 12.6178 18.7888V10.7482L12.6177 10.7481ZM21.6775 21.9797H23.0434C22.5647 22.1707 22.0961 22.3495 21.6549 22.5073C21.6927 22.3331 21.6997 22.1555 21.6774 21.9797H21.6775ZM8.37622 28.3705L6.68538 29.9605L1.10536 24.7133L2.79613 23.1234C3.01407 22.9184 3.36872 22.9183 3.58673 23.1234L8.37622 27.6271C8.59416 27.832 8.59416 28.1655 8.37622 28.3705V28.3705ZM29.8532 21.1401C29.3299 21.787 25.9802 23.7666 23.5557 24.9743C21.838 25.8299 20.5566 26.394 18.4776 26.4372C17.4392 26.4585 16.3399 26.3755 15.2769 26.295C14.8146 26.26 14.378 26.2269 13.957 26.2032C12.3319 26.1118 10.4735 26.0794 8.79281 26.801L4.53197 22.7944C8.71177 18.1914 10.2771 18.8017 13.0862 19.8974C14.7236 20.5361 16.7613 21.331 19.8239 21.331C19.8297 21.331 19.8354 21.3309 19.8412 21.3307C20.1741 21.3192 20.4736 21.4732 20.6444 21.7435C20.8152 22.0137 20.8157 22.3354 20.6459 22.604C20.3358 23.0949 19.2106 23.3496 17.6364 23.2849C16.1593 23.2242 14.6728 22.8926 14.0891 22.6069C13.8649 22.4971 13.5883 22.5791 13.4716 22.7901C13.3549 23.001 13.4421 23.261 13.6664 23.3707C14.4588 23.7585 16.1116 24.0842 17.5965 24.1452C17.7624 24.152 17.9336 24.156 18.1082 24.156C18.8992 24.156 19.7529 24.0742 20.4266 23.8074C22.7762 23.1847 27.1601 21.2041 28.7756 20.3271C29.3276 20.0274 29.7825 20.1081 29.9717 20.31C30.1575 20.5084 30.1132 20.8187 29.8532 21.1401ZM15.3137 5.37407C15.3137 3.73876 13.8989 2.40834 12.1598 2.40834C10.4208 2.40834 9.00598 3.73876 9.00598 5.37407C9.00598 7.00938 10.4208 8.3398 12.1598 8.3398C13.8989 8.3398 15.3137 7.00938 15.3137 5.37407ZM12.1598 7.47869C10.9257 7.47869 9.92171 6.53454 9.92171 5.37407C9.92171 4.2136 10.9258 3.26945 12.1598 3.26945C13.3939 3.26945 14.398 4.2136 14.398 5.37407C14.398 6.53454 13.3939 7.47869 12.1598 7.47869ZM14.4093 18.4754C14.4093 18.2376 14.6143 18.0448 14.8671 18.0448H24.4179C24.6708 18.0448 24.8758 18.2376 24.8758 18.4754C24.8758 18.7132 24.6708 18.9059 24.4179 18.9059H14.8671C14.6143 18.9059 14.4093 18.7132 14.4093 18.4754ZM19.943 6.65522C19.943 6.41743 20.148 6.22466 20.4008 6.22466H24.4179C24.6708 6.22466 24.8758 6.41743 24.8758 6.65522C24.8758 6.89301 24.6708 7.08578 24.4179 7.08578H20.4008C20.148 7.08578 19.943 6.89301 19.943 6.65522ZM18.1625 9.01928C18.1625 8.78149 18.3675 8.58872 18.6204 8.58872H24.4178C24.6707 8.58872 24.8757 8.78149 24.8757 9.01928C24.8757 9.25707 24.6707 9.44983 24.4178 9.44983H18.6204C18.3675 9.44983 18.1625 9.25707 18.1625 9.01928ZM14.4093 16.1114C14.4093 15.8736 14.6143 15.6808 14.8671 15.6808H24.4179C24.6708 15.6808 24.8758 15.8736 24.8758 16.1114C24.8758 16.3492 24.6708 16.5419 24.4179 16.5419H14.8671C14.6143 16.5419 14.4093 16.3492 14.4093 16.1114ZM14.4093 13.7473C14.4093 13.5095 14.6143 13.3168 14.8671 13.3168H24.4179C24.6708 13.3168 24.8758 13.5095 24.8758 13.7473C24.8758 13.9851 24.6708 14.1779 24.4179 14.1779H14.8671C14.6143 14.1779 14.4093 13.9851 14.4093 13.7473ZM14.4093 11.3833C14.4093 11.1455 14.6143 10.9527 14.8671 10.9527H24.4179C24.6708 10.9527 24.8758 11.1455 24.8758 11.3833C24.8758 11.6211 24.6708 11.8138 24.4179 11.8138H14.8671C14.6143 11.8138 14.4093 11.6211 14.4093 11.3833Z" fill="currentColor"/>
</svg>