<svg xmlns="http://www.w3.org/2000/svg" width="17" height="21" viewBox="0 0 13 21" fill="none">
  <path d="M8.79183 7.0625C7.4669 7.0625 6.36279 8.13901 6.36279 9.49154C6.36279 10.8441 7.4669 11.9206 8.79183 11.9206C10.1168 11.9206 11.2209 10.8165 11.2209 9.49154C11.2209 8.16661 10.1444 7.0625 8.79183 7.0625Z" stroke="currentColor" stroke-width="0.8"/>
  <path d="M8.84802 0.78125C7.74391 0.78125 4.07275 3.47567 4.07275 7.64368C4.07275 10.3211 4.5696 12.971 5.37008 14.3235C5.37008 14.3235 6.00494 14.986 8.84802 14.986C11.6359 14.986 12.2984 14.3235 12.2984 14.3235C12.6848 13.6611 13.016 12.7226 13.2369 11.5909C13.4577 10.4039 13.5957 9.05142 13.5957 7.64368C13.5957 7.39525 13.5957 7.17443 13.5681 6.95361C13.2092 3.08923 9.89692 0.78125 8.84802 0.78125Z" stroke="currentColor" stroke-width="0.8"/>
  <path d="M11.2873 16.2546C11.2081 16.0088 11.1487 16.4715 8.81234 16.4715C6.47602 16.4715 6.43642 16.0088 6.33742 16.2546C6.31762 16.298 6.23843 16.8041 6.21863 16.9921C6.17903 17.2234 6.11963 17.5127 6.11963 17.8308C6.11963 18.5538 6.67401 18.8575 6.9512 18.8575C7.24819 18.8575 7.50558 18.1778 7.50558 18.1778C7.54518 18.1345 7.58478 18.1345 7.60458 18.1778C7.60458 18.1778 8.23816 20.2312 8.77274 20.2312H8.79254H8.81234C9.34693 20.2312 9.98051 18.1778 9.98051 18.1778C10.0003 18.1345 10.0597 18.1345 10.0795 18.1778C10.0795 18.1778 10.3567 18.8575 10.6339 18.8575C10.9111 18.8575 11.4655 18.5538 11.4655 17.8308C11.4655 17.5271 11.4061 17.2379 11.3665 16.9921C11.3863 16.8186 11.3071 16.298 11.2873 16.2546Z" stroke="currentColor" stroke-width="0.8"/>
  <path d="M3.98829 8.54883C3.04596 8.82853 1.67011 9.83197 1.34943 11.0216C1.17416 11.6526 1.08123 13.0515 1.66085 14.2515L4.4538 12.6664" stroke="currentColor" stroke-width="0.8" stroke-linejoin="round"/>
  <path d="M13.5957 8.54883C14.538 8.82853 15.9139 9.83197 16.2346 11.0216C16.4098 11.6526 16.5028 13.0515 15.9231 14.2515L13.1302 12.6664" stroke="currentColor" stroke-width="0.8" stroke-linejoin="round"/>
</svg>