<svg width="30" height="33" viewBox="0 0 30 33" fill="none" xmlns="http://www.w3.org/2000/svg">
<path fill-rule="evenodd" clip-rule="evenodd" d="M14.6865 10.3335C14.8702 10.2277 15.0969 10.2277 15.2806 10.3335L20.3859 13.2719C20.5684 13.3769 20.6807 13.5703 20.6807 13.7795V19.6604C20.6807 19.8696 20.5684 20.063 20.3859 20.168L15.2806 23.1065C15.0969 23.2122 14.8702 23.2122 14.6865 23.1065L9.58113 20.168C9.39867 20.063 9.28638 19.8696 9.28638 19.6604V13.7795C9.28638 13.5703 9.39867 13.3769 9.58113 13.2719L14.6865 10.3335ZM10.47 14.1175V19.3224L14.9835 21.9202L19.497 19.3224V14.1175L14.9835 11.5197L10.47 14.1175Z" fill="currentColor"/>
<path fill-rule="evenodd" clip-rule="evenodd" d="M12.778 1.23349C14.1347 0.440042 15.8125 0.443956 17.1896 1.23171L17.1907 1.23231L18.3957 1.92487C18.5783 2.02984 18.6907 2.22333 18.6907 2.43267V5.45592L22.7642 7.80293L25.3921 6.28796C25.5756 6.18213 25.8023 6.18194 25.986 6.28744L27.3717 7.08308C28.7232 7.86728 29.5752 9.30252 29.5752 10.8803V12.3123C29.5752 12.5215 29.463 12.7148 29.2806 12.8198L26.5865 14.3718V19.066L29.2846 20.6202C29.467 20.7253 29.5792 20.9186 29.5792 21.1277V22.5794C29.5792 24.1335 28.7234 25.5873 27.3777 26.3754L27.3732 26.378L26.0294 27.1488C25.8459 27.2541 25.6195 27.254 25.4361 27.1484L22.7684 25.6135L18.6947 27.9607V31.027C18.6947 31.2363 18.5823 31.4298 18.3996 31.5348L17.1946 32.2273L17.1846 32.233C15.8113 32.9871 14.1413 32.9904 12.7889 32.2301L12.7839 32.2272L11.4639 31.4682C11.2814 31.3632 11.169 31.1697 11.169 30.9604V27.8589L7.09541 25.5118L4.39607 27.0662C4.21266 27.1718 3.98627 27.172 3.80266 27.0667L2.60496 26.38C2.60427 26.3796 2.60358 26.3792 2.60289 26.3788C2.16857 26.133 1.63313 25.6742 1.20292 25.1097C0.774362 24.5475 0.395508 23.8081 0.395508 23.0019V21.1082C0.395508 20.8991 0.507667 20.7058 0.689948 20.6007L3.34851 19.0684V14.3717L0.689948 12.8393C0.507667 12.7343 0.395508 12.541 0.395508 12.3319V10.8803C0.395508 9.30738 1.21974 7.87224 2.60169 7.08152C2.60185 7.08143 2.60201 7.08134 2.60217 7.08125L3.75855 6.41668C3.94227 6.3111 4.16894 6.31121 4.35255 6.41698L7.0915 7.99472L11.165 5.64764V2.49919C11.165 2.2899 11.2774 2.09645 11.46 1.99146L12.778 1.23349ZM25.7418 19.9369C25.5415 19.8429 25.4029 19.6406 25.4029 19.4061V14.0339C25.4029 13.8248 25.5151 13.6315 25.6974 13.5264L28.3915 11.9745V10.8803C28.3915 9.72737 27.7695 8.67447 26.7751 8.09689C26.7747 8.09667 26.7743 8.09645 26.774 8.09623L25.6901 7.47391L23.0617 8.98918C22.8778 9.09516 22.6508 9.09519 22.4669 8.98925L17.8016 6.3012C17.6193 6.19615 17.5071 6.00283 17.5071 5.79371V2.77088L16.5982 2.24853C16.598 2.24841 16.5978 2.2483 16.5976 2.24819C15.5815 1.66723 14.3591 1.67084 13.3777 2.2455L13.3737 2.24786L12.3487 2.8373V5.98544C12.3487 6.19455 12.2365 6.38787 12.0542 6.49292L7.38885 9.18097C7.20504 9.28688 6.97808 9.28689 6.79427 9.181L4.05494 7.60304L3.19462 8.09747L3.19358 8.09807C2.18171 8.67687 1.57917 9.72225 1.57917 10.8803V11.9942L4.23774 13.5265C4.42002 13.6316 4.53218 13.8249 4.53218 14.0339V19.4061C4.53218 19.6152 4.42002 19.8085 4.23774 19.9136L1.57917 21.4459V23.0019C1.57917 23.4518 1.79885 23.9449 2.14718 24.4019C2.49319 24.8559 2.912 25.2025 3.19079 25.36L3.19411 25.3619L4.09826 25.8803L6.79832 24.3255C6.98212 24.2197 7.20903 24.2197 7.39281 24.3256L12.0582 27.0137C12.2405 27.1187 12.3527 27.312 12.3527 27.5211V30.6223L13.3726 31.2089C13.3735 31.2094 13.3743 31.2098 13.3751 31.2103C14.3593 31.7625 15.5873 31.7661 16.6064 31.2087L17.511 30.6887V27.6229C17.511 27.4138 17.6232 27.2204 17.8055 27.1154L22.4709 24.4273C22.6546 24.3215 22.8814 24.3214 23.0652 24.4272L25.7335 25.9625L26.7759 25.3646C26.7766 25.3641 26.7774 25.3637 26.7781 25.3633C27.7697 24.7815 28.3955 23.7085 28.3955 22.5794V21.4656L25.7418 19.9369Z" fill="currentColor"/>
</svg>
