<svg width="105" height="104" viewBox="0 0 105 104" fill="none" xmlns="http://www.w3.org/2000/svg">
<path d="M47.4909 3.16899C50.7681 1.2769 54.8057 1.2769 58.0829 3.16899L92.4783 23.0272C95.7555 24.9193 97.7744 28.416 97.7744 32.2002V71.9166C97.7744 75.7008 95.7555 79.1975 92.4783 81.0896L58.0829 100.948C54.8057 102.84 50.7681 102.84 47.4909 100.948L13.0955 81.0896C9.81827 79.1975 7.79943 75.7008 7.79943 71.9166V32.2002C7.79943 28.416 9.81826 24.9193 13.0955 23.0272L47.4909 3.16899Z" fill="url(#paint0_radial_1963_36573)"/>
<path d="M71.2074 43.7479L50.118 65.4753C49.8381 65.7639 49.5059 65.9928 49.1401 66.149C48.7744 66.3052 48.3823 66.3856 47.9864 66.3856C47.5905 66.3856 47.1984 66.3052 46.8327 66.149C46.4669 65.9928 46.1347 65.7639 45.8549 65.4753L36.8165 56.1636C36.5366 55.8752 36.3145 55.5328 36.1631 55.156C36.0116 54.7792 35.9336 54.3754 35.9336 53.9675C35.9336 53.5597 36.0116 53.1559 36.1631 52.7791C36.3145 52.4023 36.5366 52.0599 36.8165 51.7715C37.0964 51.4831 37.4287 51.2544 37.7945 51.0983C38.1602 50.9422 38.5522 50.8619 38.9481 50.8619C39.3439 50.8619 39.7359 50.9422 40.1016 51.0983C40.4674 51.2544 40.7997 51.4831 41.0796 51.7715L47.9864 58.8911L66.9444 39.3559C67.5097 38.7735 68.2764 38.4463 69.0759 38.4463C69.8754 38.4463 70.6421 38.7735 71.2074 39.3559C71.7728 39.9383 72.0904 40.7283 72.0904 41.5519C72.0904 42.3756 71.7728 43.1655 71.2074 43.7479Z" fill="white"/>
<path d="M38.873 53.1836L48.2713 61.8725L69.7279 40.9482" stroke="white" stroke-width="6.44733" stroke-linecap="round" stroke-linejoin="round"/>
<defs>
<radialGradient id="paint0_radial_1963_36573" cx="0" cy="0" r="1" gradientUnits="userSpaceOnUse" gradientTransform="translate(11.4739 26.5789) rotate(30.0082) scale(97.0353)">
<stop offset="0.558837" stop-color="#009393"/>
<stop offset="1" stop-color="#4BEFC0"/>
</radialGradient>
</defs>
</svg>
