<svg width="164" height="164" viewBox="0 0 164 164" fill="none" xmlns="http://www.w3.org/2000/svg">
<path d="M70.5251 7.58875C77.6414 3.48019 86.4089 3.48019 93.5251 7.58875L140.984 34.9893C148.1 39.0978 152.484 46.6907 152.484 54.9078V109.709C152.484 117.926 148.1 125.519 140.984 129.627L93.5251 157.028C86.4089 161.137 77.6414 161.137 70.5251 157.028L23.0661 129.627C15.9498 125.519 11.5661 117.926 11.5661 109.709V54.9078C11.5661 46.6907 15.9498 39.0978 23.0661 34.9893L70.5251 7.58875Z" fill="url(#paint0_radial_2709_99385)"/>
<path d="M110.876 69.2917L77.8453 103.321C77.4071 103.773 76.8867 104.131 76.3139 104.376C75.741 104.621 75.127 104.747 74.5069 104.747C73.8868 104.747 73.2728 104.621 72.7 104.376C72.1271 104.131 71.6067 103.773 71.1685 103.321L57.0127 88.737C56.5743 88.2853 56.2265 87.7491 55.9893 87.159C55.752 86.5688 55.6299 85.9363 55.6299 85.2976C55.6299 84.6588 55.752 84.0263 55.9893 83.4362C56.2265 82.8461 56.5743 82.3099 57.0127 81.8582C57.4511 81.4065 57.9716 81.0482 58.5444 80.8038C59.1172 80.5594 59.7311 80.4335 60.3511 80.4335C60.9711 80.4335 61.585 80.5594 62.1578 80.8038C62.7307 81.0482 63.2511 81.4065 63.6895 81.8582L74.5069 93.0088L104.199 62.4129C105.084 61.5007 106.285 60.9883 107.537 60.9883C108.789 60.9883 109.99 61.5007 110.876 62.4129C111.761 63.3251 112.258 64.5623 112.258 65.8523C112.258 67.1423 111.761 68.3795 110.876 69.2917Z" fill="white"/>
<defs>
<radialGradient id="paint0_radial_2709_99385" cx="0" cy="0" r="1" gradientUnits="userSpaceOnUse" gradientTransform="translate(17.321 42.4026) rotate(30.0082) scale(151.976)">
<stop offset="0.558837" stop-color="#009393"/>
<stop offset="1" stop-color="#4BEFC0"/>
</radialGradient>
</defs>
</svg>
