<svg width="40" height="41" viewBox="0 0 40 41" fill="none" xmlns="http://www.w3.org/2000/svg">
<rect opacity="0.1" y="0.842773" width="40" height="40" rx="10" fill="currentColor"/>
<path fill-rule="evenodd" clip-rule="evenodd" d="M20.0002 12.4719C15.3765 12.4719 11.6281 16.2202 11.6281 20.844C11.6281 25.4678 15.3765 29.2161 20.0002 29.2161C24.624 29.2161 28.3723 25.4678 28.3723 20.844C28.3723 16.2202 24.624 12.4719 20.0002 12.4719ZM10.2705 20.844C10.2705 15.4704 14.6267 11.1143 20.0002 11.1143C25.3738 11.1143 29.73 15.4704 29.73 20.844C29.73 26.2176 25.3738 30.5737 20.0002 30.5737C14.6267 30.5737 10.2705 26.2176 10.2705 20.844Z" fill="currentColor"/>
<path fill-rule="evenodd" clip-rule="evenodd" d="M15.5195 19.94C15.5195 18.1169 17.0906 16.5459 18.9136 16.5459H23.4391C23.814 16.5459 24.1179 16.8498 24.1179 17.2247C24.1179 17.5996 23.814 17.9035 23.4391 17.9035H18.9136C17.8404 17.9035 16.8772 18.8667 16.8772 19.94V21.7502C16.8772 22.8234 17.8404 23.7866 18.9136 23.7866H23.4391C23.814 23.7866 24.1179 24.0905 24.1179 24.4654C24.1179 24.8403 23.814 25.1443 23.4391 25.1443H18.9136C17.0906 25.1443 15.5195 23.5732 15.5195 21.7502V19.94Z" fill="currentColor"/>
</svg>
