<svg width="40" height="41" viewBox="0 0 40 41" fill="none" xmlns="http://www.w3.org/2000/svg">
<path opacity="0.1" d="M0 10.8428C0 5.31993 4.47715 0.842773 10 0.842773H30C35.5228 0.842773 40 5.31993 40 10.8428V30.8428C40 36.3656 35.5228 40.8428 30 40.8428H10C4.47715 40.8428 0 36.3656 0 30.8428V10.8428Z" fill="currentColor"/>
<path fill-rule="evenodd" clip-rule="evenodd" d="M11.9391 12.7819C13.1469 11.5741 14.9543 11.1123 17.284 11.1123H22.7145C25.0442 11.1123 26.8516 11.5741 28.0594 12.7819C29.2672 13.9897 29.729 15.7971 29.729 18.1268V23.5573C29.729 25.887 29.2672 27.6944 28.0594 28.9022C26.8516 30.11 25.0442 30.5718 22.7145 30.5718H17.284C14.9543 30.5718 13.1469 30.11 11.9391 28.9022C10.7313 27.6944 10.2695 25.887 10.2695 23.5573V18.1268C10.2695 15.7971 10.7313 13.9897 11.9391 12.7819ZM12.8991 13.7419C12.0705 14.5705 11.6272 15.931 11.6272 18.1268V23.5573C11.6272 25.7531 12.0705 27.1135 12.8991 27.9422C13.7278 28.7708 15.0882 29.2141 17.284 29.2141H22.7145C24.9103 29.2141 26.2708 28.7708 27.0994 27.9422C27.928 27.1135 28.3714 25.7531 28.3714 23.5573V18.1268C28.3714 15.931 27.928 14.5705 27.0994 13.7419C26.2708 12.9133 24.9103 12.4699 22.7145 12.4699H17.284C15.0882 12.4699 13.7278 12.9133 12.8991 13.7419Z" fill="currentColor"/>
<path fill-rule="evenodd" clip-rule="evenodd" d="M24.6341 23.0466C24.634 23.0468 24.6342 23.0464 24.6341 23.0466L23.8292 24.6654L23.8285 24.6667C23.4068 25.5101 22.5485 26.0466 21.6013 26.0466H18.4063C18.1459 26.0466 16.867 26.0449 16.1722 24.6802L16.1693 24.6744L15.3645 23.0557C15.3643 23.0554 15.3646 23.0559 15.3645 23.0557C15.1706 22.6686 14.7797 22.4263 14.3515 22.4263H10.9483C10.5734 22.4263 10.2695 22.1223 10.2695 21.7474C10.2695 21.3725 10.5734 21.0686 10.9483 21.0686H14.3515C15.2987 21.0686 16.1571 21.6051 16.5788 22.4485L16.5794 22.4499L17.3834 24.0669C17.7016 24.689 18.2296 24.689 18.4049 24.689H21.6013C22.0295 24.689 22.4201 24.4473 22.6139 24.0602C22.6138 24.0604 22.614 24.06 22.6139 24.0602L23.4191 22.4408L23.4198 22.4395C23.8415 21.5961 24.6998 21.0596 25.647 21.0596H29.0321C29.407 21.0596 29.7109 21.3635 29.7109 21.7384C29.7109 22.1133 29.407 22.4172 29.0321 22.4172H25.647C25.2188 22.4172 24.8279 22.6595 24.6341 23.0466Z" fill="currentColor"/>
<path fill-rule="evenodd" clip-rule="evenodd" d="M17.8174 16.3165C17.8174 15.9416 18.1213 15.6377 18.4962 15.6377H21.5102C21.8851 15.6377 22.189 15.9416 22.189 16.3165C22.189 16.6914 21.8851 16.9953 21.5102 16.9953H18.4962C18.1213 16.9953 17.8174 16.6914 17.8174 16.3165Z" fill="currentColor"/>
<path fill-rule="evenodd" clip-rule="evenodd" d="M17.0586 19.0314C17.0586 18.6565 17.3625 18.3525 17.7374 18.3525H22.2629C22.6378 18.3525 22.9417 18.6565 22.9417 19.0314C22.9417 19.4063 22.6378 19.7102 22.2629 19.7102H17.7374C17.3625 19.7102 17.0586 19.4063 17.0586 19.0314Z" fill="currentColor"/>
</svg>
