<svg width="40" height="41" viewBox="0 0 40 41" fill="none" xmlns="http://www.w3.org/2000/svg">
<rect opacity="0.1" y="0.842773" width="40" height="40" rx="10" fill="currentColor"/>
<path fill-rule="evenodd" clip-rule="evenodd" d="M10.2705 18.1682C10.2705 17.7652 10.5744 17.4385 10.9493 17.4385H20.9053C21.2802 17.4385 21.5841 17.7652 21.5841 18.1682C21.5841 18.5712 21.2802 18.8979 20.9053 18.8979H10.9493C10.5744 18.8979 10.2705 18.5712 10.2705 18.1682Z" fill="currentColor"/>
<path fill-rule="evenodd" clip-rule="evenodd" d="M13.8906 25.9514C13.8906 25.5484 14.1945 25.2217 14.5694 25.2217H16.3796C16.7545 25.2217 17.0584 25.5484 17.0584 25.9514C17.0584 26.3544 16.7545 26.6811 16.3796 26.6811H14.5694C14.1945 26.6811 13.8906 26.3544 13.8906 25.9514Z" fill="currentColor"/>
<path fill-rule="evenodd" clip-rule="evenodd" d="M17.9639 25.9514C17.9639 25.5484 18.2678 25.2217 18.6427 25.2217H22.2631C22.638 25.2217 22.9419 25.5484 22.9419 25.9514C22.9419 26.3544 22.638 26.6811 22.2631 26.6811H18.6427C18.2678 26.6811 17.9639 26.3544 17.9639 25.9514Z" fill="currentColor"/>
<path fill-rule="evenodd" clip-rule="evenodd" d="M12.231 14.6769C11.8463 15.0858 11.6281 15.863 11.6281 17.5743V25.5721C11.6281 27.2834 11.8463 28.0607 12.231 28.4696C12.6184 28.8814 13.356 29.1138 14.9679 29.1138H25.0325C26.6445 29.1138 27.3821 28.8814 27.7695 28.4696C28.1542 28.0607 28.3723 27.2834 28.3723 25.5721V20.9214C28.3723 20.5183 28.6762 20.1916 29.0511 20.1916C29.426 20.1916 29.73 20.5183 29.73 20.9214V25.5721C29.73 27.276 29.5453 28.6344 28.724 29.5074C27.9054 30.3775 26.6337 30.5732 25.0325 30.5732H14.9679C13.3668 30.5732 12.0951 30.3775 11.2765 29.5074C10.4551 28.6344 10.2705 27.276 10.2705 25.5721V17.5743C10.2705 15.8705 10.4551 14.512 11.2765 13.6391C12.0951 12.7689 13.3668 12.5732 14.9679 12.5732H21.1588C21.5337 12.5732 21.8376 12.9 21.8376 13.303C21.8376 13.706 21.5337 14.0327 21.1588 14.0327H14.9679C13.356 14.0327 12.6184 14.2651 12.231 14.6769Z" fill="currentColor"/>
<path fill-rule="evenodd" clip-rule="evenodd" d="M23.8467 13.0608C23.8467 12.6578 24.1506 12.3311 24.5255 12.3311H27.3584C28.3819 12.3311 29.1686 13.2971 29.1686 14.277C29.1686 15.3514 28.3578 16.2229 27.3584 16.2229H24.5255C24.1506 16.2229 23.8467 15.8962 23.8467 15.4932V13.0608ZM25.6908 13.7905C25.4221 13.7905 25.2043 14.0083 25.2043 14.277C25.2043 14.5457 25.4221 14.7635 25.6908 14.7635H27.3584C27.608 14.7635 27.811 14.5453 27.811 14.277C27.811 14.0504 27.584 13.7905 27.3584 13.7905H25.6908Z" fill="currentColor"/>
<path fill-rule="evenodd" clip-rule="evenodd" d="M23.8467 15.4924C23.8467 15.0894 24.1506 14.7627 24.5255 14.7627H27.7567C28.7582 14.7627 29.7298 15.5454 29.7298 16.7086C29.7298 17.8719 28.7582 18.6546 27.7567 18.6546H24.5255C24.1506 18.6546 23.8467 18.3279 23.8467 17.9249V15.4924ZM25.6908 16.2222C25.4221 16.2222 25.2043 16.44 25.2043 16.7086C25.2043 16.9773 25.4221 17.1951 25.6908 17.1951H27.7567C28.1852 17.1951 28.3721 16.8881 28.3721 16.7086C28.3721 16.5292 28.1852 16.2222 27.7567 16.2222H25.6908Z" fill="currentColor"/>
<path fill-rule="evenodd" clip-rule="evenodd" d="M26.1183 17.1963C26.4932 17.1963 26.7971 17.523 26.7971 17.926V19.1422C26.7971 19.5453 26.4932 19.872 26.1183 19.872C25.7434 19.872 25.4395 19.5453 25.4395 19.1422V17.926C25.4395 17.523 25.7434 17.1963 26.1183 17.1963Z" fill="currentColor"/>
<path fill-rule="evenodd" clip-rule="evenodd" d="M26.1183 11.1143C26.4932 11.1143 26.7971 11.441 26.7971 11.844V13.0602C26.7971 13.4632 26.4932 13.7899 26.1183 13.7899C25.7434 13.7899 25.4395 13.4632 25.4395 13.0602V11.844C25.4395 11.441 25.7434 11.1143 26.1183 11.1143Z" fill="currentColor"/>
<path fill-rule="evenodd" clip-rule="evenodd" d="M22.9414 13.0608C22.9414 12.6578 23.2453 12.3311 23.6202 12.3311H25.6024C25.9773 12.3311 26.2812 12.6578 26.2812 13.0608C26.2812 13.4638 25.9773 13.7905 25.6024 13.7905H23.6202C23.2453 13.7905 22.9414 13.4638 22.9414 13.0608Z" fill="currentColor"/>
<path fill-rule="evenodd" clip-rule="evenodd" d="M22.9414 17.926C22.9414 17.523 23.2453 17.1963 23.6202 17.1963H25.6024C25.9773 17.1963 26.2812 17.523 26.2812 17.926C26.2812 18.329 25.9773 18.6557 25.6024 18.6557H23.6202C23.2453 18.6557 22.9414 18.329 22.9414 17.926Z" fill="currentColor"/>
</svg>
