<svg width="30" height="28" viewBox="0 0 30 28" fill="none" xmlns="http://www.w3.org/2000/svg">
<path fill-rule="evenodd" clip-rule="evenodd" d="M1.42181 4.3269V23.3043C1.42181 24.9098 2.69872 26.2112 4.27387 26.2112H24.8721C26.4473 26.2112 27.7242 24.9098 27.7242 23.3043V19.5662H29.0406V23.3043C29.0406 25.6507 27.1743 27.5529 24.8721 27.5529H4.27387C1.97173 27.5529 0.105469 25.6507 0.105469 23.3043V4.3269H1.42181Z" fill="currentColor"/>
<path fill-rule="evenodd" clip-rule="evenodd" d="M3.68008 1.56455C2.43287 1.56455 1.42181 2.59505 1.42181 3.86623C1.42181 5.13742 2.43287 6.16792 3.68008 6.16792H25.4899C25.4416 3.61716 23.3978 1.56455 20.8836 1.56455H3.68008ZM26.8071 6.24281C26.7978 2.91649 24.1493 0.2229 20.8836 0.2229H3.68008C1.70588 0.2229 0.105469 1.85408 0.105469 3.86623C0.105469 5.87839 1.70587 7.50957 3.68008 7.50957H26.1489C27.0558 7.50957 27.791 8.2589 27.791 9.18325V13.6211H29.1074V9.18325C29.1074 7.74849 28.1242 6.54778 26.8071 6.24281Z" fill="currentColor"/>
<path fill-rule="evenodd" clip-rule="evenodd" d="M28.4474 14.7953H23.3147C22.2949 14.7953 21.4682 15.6379 21.4682 16.6773C21.4682 17.7167 22.2949 18.5593 23.3147 18.5593H28.4474V14.7953ZM23.3147 13.4536C21.5679 13.4536 20.1519 14.8969 20.1519 16.6773C20.1519 18.4577 21.5679 19.901 23.3147 19.901H28.8862C29.3708 19.901 29.7637 19.5005 29.7637 19.0066V14.348C29.7637 13.8541 29.3708 13.4536 28.8862 13.4536H23.3147Z" fill="currentColor"/>
<path d="M23.9308 16.6773C23.9308 17.0704 23.6181 17.389 23.2325 17.389C22.8468 17.389 22.5342 17.0704 22.5342 16.6773C22.5342 16.2842 22.8468 15.9656 23.2325 15.9656C23.6181 15.9656 23.9308 16.2842 23.9308 16.6773Z" fill="currentColor"/>
</svg>
